<svg width="151" height="84" viewBox="0 0 151 84" fill="none" xmlns="http://www.w3.org/2000/svg">
<g clip-path="url(#clip0_75_22968)">
<path fill-rule="evenodd" clip-rule="evenodd" d="M45.7703 43.7934L42.9092 39.1681L39.1966 33.3868L39.166 33.3262H36.123V50.3962H39.5004V39.9298L42.0271 44.0075L46.104 50.3962H49.1784V33.3262H45.7703V43.7934ZM51.0961 50.3962H62.2629V47.1715H54.4734V43.459H61.1376V40.2036H54.4734V36.5815H62.2629V33.3262H51.0961V50.3962ZM67.5586 36.6122H63.6328V33.3262H74.8326V36.6122H70.9666V50.3962H67.5586V36.6122Z" fill="white"/>
<path fill-rule="evenodd" clip-rule="evenodd" d="M77.2379 28H76.4463V55.7529H77.2379V50.3965H87.3416V47.1719H79.5821V43.4593H86.2148V40.2039H79.5821V36.5819H87.3416V33.3265H77.2379V28ZM98.6917 43.8245L95.8314 39.1991L92.1495 33.417L92.0881 33.3564H89.046V50.4289H92.4234V39.9301L94.9485 44.0369L99.0262 50.4289H102.101V33.3564H98.6917V43.8245ZM103.5 36.6425V33.3564H114.699V36.6425H110.804V50.4289H107.395V36.6425H103.5Z" fill="#77BD1F"/>
</g>
<defs>
<clipPath id="clip0_75_22968">
<rect width="78.6893" height="28" fill="white" transform="translate(36 28)"/>
</clipPath>
</defs>
</svg>
