<svg width="151" height="84" viewBox="0 0 151 84" fill="none" xmlns="http://www.w3.org/2000/svg">
<path fill-rule="evenodd" clip-rule="evenodd" d="M100.117 36.576H99.1596C98.9484 36.576 98.8423 36.576 98.7889 36.523C98.7349 36.4693 98.7349 36.3614 98.7349 36.1443C98.6275 35.4966 98.4157 34.9568 98.0953 34.5251C97.6707 33.8774 96.9246 33.5535 96.1796 33.4456C95.4346 33.3376 94.6907 33.4456 94.0511 33.7694C93.1997 34.2012 92.6675 34.9568 92.5622 35.9284C92.4547 36.576 92.4547 36.576 91.8172 36.576H90.0079C89.7951 36.576 89.6886 36.4681 89.6886 36.2522C89.5812 35.4966 89.2629 34.7409 88.6244 34.0933C87.8794 33.4456 87.028 33.2297 86.0701 33.3376C84.4737 33.5535 83.6223 34.5251 83.4094 36.0363C83.303 36.4681 83.303 36.4681 82.8773 36.4681H80.8563C80.6434 36.4681 80.5359 36.3602 80.6434 36.1443L80.6454 36.1353C80.8576 35.1667 81.0697 34.1985 81.6002 33.3376C82.2398 32.2582 83.0902 31.3946 84.2609 30.9628C85.6434 30.4231 87.0269 30.3151 88.304 30.8548C89.1554 31.1787 89.7929 31.7184 90.4326 32.3661C90.5069 32.4419 90.5684 32.5176 90.626 32.5887C90.7328 32.7202 90.8265 32.8358 90.9647 32.9058C91.0547 33.0885 91.144 33.0394 91.2982 32.9546C91.3263 32.9391 91.3566 32.9225 91.3894 32.9058C91.9215 32.2582 92.4536 31.7184 93.0933 31.2866C94.1575 30.639 95.2218 30.4231 96.3925 30.531C97.1375 30.639 97.776 30.7469 98.4146 31.0707C99.3714 31.5025 100.117 32.2582 100.65 33.2297C101.15 34.0412 101.368 35.0433 101.569 35.9674L101.607 36.1443C101.607 36.3602 101.607 36.4681 101.287 36.4681C100.862 36.576 100.543 36.576 100.117 36.576ZM46.5838 37.4384H47.6481C47.861 37.4384 47.9674 37.5463 47.9674 37.7622C47.9674 38.302 48.0738 38.9496 48.1802 39.4894C48.4995 40.8927 49.9895 42.0801 51.373 42.0801C52.2245 42.0801 53.0759 42.0801 53.8209 41.7563C54.8851 41.3245 55.6301 40.5689 56.0558 39.4894C56.2687 38.9496 56.2687 38.4099 56.2687 37.7622V37.7622C56.2687 37.5463 56.2687 37.4384 56.588 37.4384H58.7165C58.8903 37.4384 58.9222 37.5103 58.986 37.6543C59.0003 37.6866 59.0163 37.7226 59.0358 37.7622C59.1422 39.3814 58.7165 40.8927 57.8651 42.296C57.1201 43.4834 56.0558 44.2391 54.6723 44.5629C52.7566 45.1026 50.8409 45.1026 48.9252 44.2391C47.7545 43.6993 46.9031 42.8357 46.2645 41.7563C45.5196 40.5689 45.2003 39.1655 45.3067 37.7622C45.3067 37.5463 45.4131 37.4384 45.626 37.4384C45.6879 37.4384 45.7679 37.4292 45.858 37.4189L45.858 37.4189C46.0776 37.3938 46.3575 37.3618 46.5838 37.4384ZM56.6942 36.5774H57.6521H58.7163C59.0356 36.5774 59.1421 36.5774 59.0356 36.2535C58.9292 35.9837 58.8494 35.6868 58.7696 35.3899L58.7695 35.3899C58.6897 35.0931 58.6099 34.7962 58.5035 34.5264C58.1842 33.6628 57.5456 32.9072 56.9071 32.2595C55.8428 31.18 54.4593 30.7482 52.9693 30.6403C51.5857 30.5323 50.2022 30.7482 48.925 31.288C47.7543 31.7197 46.9029 32.5833 46.2644 33.6628C45.7675 34.3684 45.549 35.2622 45.3489 36.0806L45.3065 36.2535C45.2001 36.4694 45.3065 36.5774 45.5194 36.5774H47.5415C47.8608 36.5774 47.9672 36.4694 48.0736 36.1456C48.3929 34.9582 49.1379 34.0946 50.2022 33.6628C51.2664 33.231 52.4371 33.231 53.5014 33.4469C54.14 33.6628 54.6721 33.8787 55.2042 34.3105C55.7364 34.8502 56.1621 35.4979 56.2685 36.2535C56.2685 36.4694 56.4814 36.5774 56.6942 36.5774ZM34.3452 30.7466H36.8994C38.3894 30.8546 39.6665 31.3943 40.7308 32.3658C41.9015 33.4453 42.3272 34.7407 42.4336 36.2519C42.4336 36.4678 42.3272 36.5758 42.1143 36.5758H39.9858C39.7729 36.5758 39.6665 36.4678 39.6665 36.2519C39.5601 35.3883 39.3472 34.6327 38.6022 34.093C38.1765 33.7691 37.6444 33.5532 37.1123 33.4453H34.2387C34.0259 33.4453 33.9194 33.5532 33.9194 33.7691V36.144C33.9194 36.5758 33.9194 36.5758 33.4937 36.5758H31.4716C31.2588 36.5758 31.1523 36.4678 31.1523 36.2519V31.0705C31.1523 30.7466 31.2588 30.6387 31.4716 30.6387C32.5359 30.7466 33.4937 30.7466 34.3452 30.7466ZM62.4421 44.7803H66.2734C67.5506 44.7803 68.9341 44.7803 70.1048 44.7814C70.3177 44.7814 70.4241 44.6734 70.4241 44.4575V42.2986C70.4241 42.0827 70.3177 41.9747 70.1048 41.9747H65.1027C64.8909 41.9747 64.7845 41.9747 64.731 41.9215C64.677 41.8678 64.677 41.7599 64.677 41.543V41.5429V37.5489C64.677 37.441 64.677 37.333 64.4642 37.333H62.3356C62.1228 37.333 62.0164 37.441 62.0164 37.6568V44.3496C62.0164 44.7803 62.0164 44.7803 62.4421 44.7803ZM115.337 30.6387H119.594C119.807 30.6387 119.913 30.7466 119.807 30.9625V33.2294C119.807 33.4453 119.7 33.5532 119.487 33.5532H116.933C116.72 33.5532 116.614 33.6612 116.614 33.8771V36.2519C116.614 36.6837 116.614 36.6837 116.188 36.6837H114.167C113.954 36.6837 113.848 36.5758 113.848 36.3599V33.7691C113.848 33.5532 113.848 33.4453 113.527 33.4453H110.867C110.655 33.4453 110.547 33.3374 110.547 33.1215V31.0705V31.0704C110.547 30.6387 110.547 30.6387 110.973 30.6387H115.337ZM113.952 37.7628V41.1092C113.952 42.1887 113.952 43.3761 114.059 44.4556C114.059 44.6715 114.166 44.7794 114.379 44.7794H116.4C116.613 44.7794 116.719 44.6715 116.719 44.4556V37.6549C116.719 37.439 116.613 37.3311 116.4 37.3311H114.272C114.059 37.3311 113.952 37.439 113.952 37.7628ZM74.0426 41.1092V37.7628C74.0426 37.439 74.149 37.3311 74.4683 37.3311H76.4904C76.7033 37.3311 76.8097 37.439 76.8097 37.6549V44.4556C76.8097 44.6715 76.7033 44.7794 76.4904 44.7794H74.4683C74.149 44.7794 74.149 44.6715 74.149 44.4556C74.0426 43.2681 74.0426 42.1887 74.0426 41.1092ZM80.5346 37.6549V41.1092C80.5346 42.1887 80.5346 43.3761 80.4282 44.3476C80.4282 44.5624 80.5346 44.6715 80.7475 44.6715H82.876C83.0889 44.6715 83.1953 44.6715 83.1953 44.4556V44.0238V38.3026V37.5469C83.1953 37.439 83.1953 37.3311 82.9835 37.3311H80.855C80.6421 37.3311 80.5346 37.439 80.5346 37.6549ZM104.907 41.1092V37.6549C104.907 37.439 104.907 37.3311 105.226 37.3311H107.462C107.674 37.3311 107.674 37.439 107.674 37.5469V38.3026V44.4556C107.674 44.7794 107.567 44.7794 107.354 44.7794H105.333C105.121 44.7794 105.013 44.6715 105.013 44.4556C104.907 43.3761 104.907 42.1887 104.907 41.1092ZM89.6866 37.7633V41.1097V44.456C89.6866 44.7799 89.7931 44.8878 90.1124 44.8878H92.0291C92.4537 44.8878 92.4537 44.7799 92.4537 44.456V38.9507V37.7633C92.4537 37.5474 92.3473 37.4395 92.1345 37.4395H90.0059C89.7931 37.4395 89.6866 37.4395 89.6866 37.7633ZM101.5 41.0017V44.456C101.5 44.7799 101.394 44.7799 101.181 44.7799H99.1588C98.947 44.7799 98.8395 44.6719 98.8395 44.456V38.303V37.6553C98.8395 37.4395 98.947 37.4395 99.0523 37.4395H101.287C101.5 37.4395 101.5 37.5474 101.5 37.7633V41.0017ZM39.6662 37.8707V41.1091C39.6662 41.3725 39.6726 41.6423 39.6791 41.9186V41.9186V41.9186V41.9187V41.9187V41.9187C39.6992 42.7746 39.7207 43.6922 39.5598 44.6714C39.5598 44.8873 39.6662 44.9952 39.8791 44.9952H41.6884C42.3424 44.9952 42.3402 44.912 42.3299 44.5264L42.3299 44.5264C42.3285 44.4728 42.3269 44.4134 42.3269 44.3475V37.8707C42.3269 37.6548 42.2205 37.5469 42.0076 37.5469H39.9855C39.7727 37.5469 39.6662 37.6548 39.6662 37.8707ZM34.0258 41.1101V44.4564C34.0258 44.7803 33.9194 44.7803 33.7065 44.7803H31.6844C31.3651 44.7803 31.3651 44.6723 31.3651 44.3496V37.6568C31.3651 37.441 31.4715 37.333 31.6844 37.333H33.7065C34.0258 37.333 34.0258 37.441 34.0258 37.7648V41.1101ZM74.0426 30.9625V33.6612V36.3599C74.0426 36.5758 74.0426 36.6837 74.2555 36.6837H76.4904C76.7033 36.6837 76.8097 36.5758 76.8097 36.3599V30.9625C76.8097 30.7466 76.7033 30.6387 76.4904 30.6387H74.3619C74.149 30.6387 74.0426 30.7466 74.0426 30.9625ZM104.907 33.5532V30.9625C104.907 30.7466 105.013 30.6387 105.226 30.6387H107.248C107.567 30.6387 107.674 30.7466 107.674 30.9625V35.4963V36.2519C107.674 36.4678 107.567 36.5758 107.354 36.5758H105.226C105.013 36.5758 104.907 36.4678 104.907 36.2519V33.5532ZM62.0162 30.9625V33.6612C62.0162 34.5248 62.0162 35.3883 61.9098 36.2519C61.9098 36.4678 62.0162 36.5758 62.2291 36.5758H64.3576C64.5705 36.5758 64.6769 36.4678 64.6769 36.2519V30.8546C64.6769 30.7466 64.6769 30.6387 64.464 30.6387H62.3355C62.1226 30.6387 62.0162 30.7466 62.0162 30.9625Z" fill="#FFFE00"/>
<path fill-rule="evenodd" clip-rule="evenodd" d="M53.715 54.171V53.5233C53.1829 53.6313 52.7572 53.6313 52.5443 53.5233C52.2251 53.5233 51.7993 53.1984 51.6929 52.8746C51.4801 52.3348 51.4801 51.7951 51.5865 51.2554C51.6929 50.7156 52.1186 50.2849 52.6508 50.2849C52.7464 50.2849 52.8636 50.3283 52.9926 50.3761C53.1506 50.4346 53.3264 50.4997 53.5022 50.4997C53.6086 50.4997 53.8215 50.3918 53.8215 50.3918C53.8215 50.3159 53.861 50.2399 53.9029 50.1593C53.9802 50.0106 54.0659 49.8461 53.9279 49.6362H53.8215C53.3958 49.4203 52.8636 49.3123 52.3315 49.4203C51.6929 49.5293 51.1608 49.7452 50.8415 50.2849C50.2029 51.1485 50.2029 52.12 50.5222 53.0916C50.6286 53.4143 50.8415 53.8472 51.1608 54.0631C51.9058 54.6028 52.7572 54.4949 53.6086 54.279C53.6086 54.279 53.715 54.279 53.715 54.171ZM97.9982 51.3737C97.9635 51.4306 97.9229 51.4973 97.8822 51.5798C97.7758 51.4719 97.6694 51.3639 97.7779 51.2549C97.5651 50.9321 97.3533 50.6083 97.2458 50.2844C97.0329 49.7447 96.8211 49.4198 96.1815 49.5288H96.0751C95.7558 49.5288 95.7558 49.6368 95.8622 49.8527C96.0751 50.3924 96.3944 50.9321 96.7137 51.4719C97.1394 52.2286 97.3533 52.8752 97.2458 53.7388C97.2458 54.1184 97.2458 54.3073 97.3402 54.4013C97.4338 54.4944 97.62 54.4944 97.9908 54.4944C98.2036 54.4944 98.3101 54.3864 98.3101 54.1705V52.9831C98.3101 52.6593 98.4158 52.4448 98.5219 52.2296L98.5229 52.2275C98.7358 51.8497 98.9486 51.4449 99.1615 51.0401L99.1615 51.04C99.3743 50.6352 99.5872 50.2305 99.8 49.8527C99.9054 49.7458 99.9054 49.6368 99.6925 49.6368H99.054C98.9476 49.6368 98.8411 49.7447 98.7347 49.8527C98.5218 50.2823 98.31 50.712 98.0982 51.1417L98.0979 51.1423L98.0976 51.1428L98.0951 51.148C98.0951 51.2147 98.0544 51.2815 97.9982 51.3737ZM81.3854 52.4444V50.7162C81.3854 50.5003 81.2779 50.5003 81.1726 50.5003H80.4276C80.2147 50.5003 80.1083 50.5003 80.1083 50.2855C80.1083 50.2038 80.1066 50.1324 80.1051 50.0699C80.1006 49.8824 80.0981 49.7761 80.1495 49.7158C80.2169 49.6367 80.377 49.6367 80.7468 49.6367H83.515C83.7268 49.6367 83.8343 49.7457 83.8343 49.9606C83.8343 50.2317 83.8343 50.3666 83.7668 50.4338C83.7 50.5003 83.567 50.5003 83.3022 50.5003C82.9314 50.5003 82.7452 50.5003 82.6516 50.5934C82.5572 50.6874 82.5572 50.8763 82.5572 51.2559V54.2784C82.5572 54.4943 82.4507 54.4943 82.3443 54.4943H82.1315C81.8667 54.4943 81.7336 54.4943 81.6668 54.4278C81.5993 54.3607 81.5993 54.2257 81.5993 53.9546C81.3854 53.4159 81.3854 52.9842 81.3854 52.4444ZM67.5508 54.1715V52.0125V50.0695C67.5508 49.6377 67.5508 49.6377 67.1251 49.6377H66.6994C66.593 49.6377 66.4866 49.6377 66.4866 49.8536V53.7397C66.4866 54.1736 66.4598 54.3623 66.5406 54.4426C66.6209 54.5224 66.8074 54.4953 67.2315 54.4953C67.4444 54.4953 67.5508 54.3874 67.5508 54.1715Z" fill="white"/>
</svg>
