<svg width="151" height="84" viewBox="0 0 151 84" fill="none" xmlns="http://www.w3.org/2000/svg">
<g clip-path="url(#clip0_75_23781)">
<path d="M38.5939 39.6927H41.0085V41.6675L44.8316 41.7683V30.7053C44.8316 30.5844 44.7713 30.4836 44.6707 30.4836H41.1695C41.0688 30.4836 41.0085 30.5642 41.0085 30.7053V35.9446H38.5939V30.7053C38.5939 30.5844 38.5335 30.4836 38.4329 30.4836H34.972C34.8713 30.4836 34.811 30.5642 34.811 30.7053V41.5264L38.5939 41.6272V39.6927Z" fill="white"/>
<path d="M53.6852 30.665C53.6449 30.5441 53.5846 30.5038 53.5041 30.5038H49.7413C49.6608 30.5038 49.6004 30.5441 49.5602 30.665L46.3608 41.8086L56.8845 42.0907L53.6852 30.665ZM50.6065 40.0352L51.5925 33.728L52.5583 40.0352H50.6065Z" fill="white"/>
<path d="M71.6741 41.9295L73.3442 39.4912L74.6118 42.534L78.5356 42.6348L75.6381 36.1663L79.3605 30.7254C79.461 30.5844 79.4008 30.4635 79.26 30.4635H75.3162C75.2357 30.4635 75.1551 30.5239 75.1351 30.5844L71.6942 36.126V30.6851C71.6942 30.5642 71.6339 30.4635 71.5332 30.4635H68.3138C68.2131 30.4635 68.1527 30.5441 68.1527 30.6851V42.3526L71.6942 42.4534L71.6741 41.9295Z" fill="white"/>
<path d="M90.2666 40.5793C90.2666 34.7758 83.7469 36.8514 83.7469 34.5542C83.7469 33.8892 84.3106 33.607 85.0548 33.607C85.9403 33.607 86.8258 34.0101 87.691 34.9169C87.7316 34.9773 87.8115 34.9975 87.8724 34.9572C87.8923 34.937 87.9126 34.9169 87.9126 34.8967L89.6831 32.4383C89.7435 32.3577 89.7435 32.2166 89.6627 32.136C88.4356 30.665 86.9666 30 85.1956 30C82.7811 30 80.1858 31.1889 80.1858 34.9975C80.1858 41.0831 86.7856 38.665 86.7856 41.1637C86.7856 41.9295 86.1619 42.3123 85.2765 42.3123C84.1698 42.3123 83.0627 41.7481 81.9566 40.2368C81.8956 40.1562 81.7955 40.136 81.735 40.2368L80.0047 42.6952L89.8035 42.9572C90.1258 42.1914 90.2666 41.3854 90.2666 40.5793Z" fill="white"/>
<path d="M98.295 30.665C98.2548 30.5441 98.1944 30.5038 98.114 30.5038H94.3316C94.2508 30.5038 94.1903 30.5441 94.1502 30.665L90.629 42.9572L101.817 43.2393L98.295 30.665ZM95.2166 40.0352L96.2226 33.728L97.1884 40.0352H95.2166Z" fill="white"/>
<path d="M108.819 37.1536L109.805 43.461L113.889 43.5617L117.471 30.7254C117.512 30.5844 117.451 30.4836 117.35 30.4836H113.99C113.889 30.4836 113.829 30.5441 113.809 30.6851L112.018 38.141L110.569 30.6851C110.55 30.5844 110.489 30.4836 110.388 30.4836H107.25C107.149 30.4836 107.088 30.5642 107.069 30.6851L105.619 38.141L103.829 30.6851C103.808 30.5642 103.748 30.4836 103.648 30.4836H100.287C100.186 30.4836 100.126 30.5642 100.167 30.7254L103.667 43.2998L107.833 43.4005L108.819 37.1536Z" fill="white"/>
<path d="M66.5028 41.1436C66.5028 41.1234 66.4827 41.0831 66.4626 41.0831C66.4425 41.0831 66.4223 41.0831 66.4022 41.1033C65.9193 41.8085 65.1345 42.2317 64.2693 42.2116C62.4181 42.2116 61.5327 40.3577 61.5327 37.8993C61.5327 35.6625 62.2571 33.6877 64.3095 33.6877C65.1547 33.6474 65.9394 34.0705 66.4022 34.7557C66.4223 34.7758 66.4626 34.796 66.4827 34.7758C66.5028 34.7557 66.5028 34.7557 66.5028 34.7355V30.6247C66.5028 30.5239 66.4425 30.4433 66.362 30.403C65.6577 30.1612 64.8931 30.0403 64.1486 30.0403C60.0437 30.0403 57.4078 33.6474 57.4078 38.2015C57.3876 39.5516 57.6492 40.8816 58.1724 42.1108L66.5028 42.3325V41.1436Z" fill="white"/>
<path d="M39.1975 45.8589C39.1975 45.9798 39.2579 46.0605 39.3585 46.0605H42.8396C42.9402 46.0605 43.0005 45.9798 43.0005 45.8589V42.3728L39.1774 42.272L39.1975 45.8589Z" fill="white"/>
<path d="M33.161 46.0605H36.6219C36.7225 46.0605 36.803 45.9798 36.803 45.8589V42.1914L33 42.1109V45.8589C33 45.9798 33.0604 46.0605 33.161 46.0605Z" fill="white"/>
<path d="M43.7048 46.0605H47.1858C47.2864 46.0605 47.3469 45.9798 47.3669 45.8992L47.8096 43.9648H51.7133L52.1559 45.8992C52.1761 46 52.2565 46.0605 52.337 46.0605H55.8181C55.9388 46.0605 55.9791 45.9597 55.9388 45.7985L55.0535 42.6549L44.5298 42.3728L43.5438 45.7783C43.5237 45.9597 43.584 46.0605 43.7048 46.0605Z" fill="white"/>
<path d="M73.9477 45.9194C73.968 46 74.0486 46.0605 74.1288 46.0605H77.771C77.8918 46.0605 77.952 45.9597 77.8918 45.7985L76.7247 43.2192L72.8009 43.1184L73.9477 45.9194Z" fill="white"/>
<path d="M66.4827 46.0605H69.7021C69.8028 46.0605 69.8631 45.9798 69.8631 45.8589V43.0579L66.3217 42.9572V45.8388C66.3217 45.9798 66.3821 46.0605 66.4827 46.0605Z" fill="white"/>
<path d="M77.9321 43.9648C79.1794 45.597 81.1113 46.5642 83.1634 46.5642C85.2364 46.5642 87.168 45.5566 88.0133 43.5416L78.2137 43.2796L77.9321 43.6826C77.8715 43.7632 77.8715 43.8841 77.9321 43.9648Z" fill="white"/>
<path d="M88.3147 46.0605H91.7956C91.8967 46.0605 91.9766 45.9798 91.9969 45.8992L92.4396 43.9648H96.3435L96.7862 45.8992C96.8061 46 96.8864 46.0605 96.987 46.0605H100.448C100.569 46.0605 100.609 45.9597 100.569 45.7985L100.005 43.8237L88.8179 43.5416L88.1739 45.7985C88.1337 45.9597 88.214 46.0605 88.3147 46.0605Z" fill="white"/>
<path d="M108.296 45.8791C108.316 45.9798 108.376 46.0605 108.477 46.0605H111.435C111.535 46.0605 111.596 46 111.616 45.8791L112.099 44.1461L108.014 44.0454L108.296 45.8791Z" fill="white"/>
<path d="M102.601 46.0605H105.559C105.66 46.0605 105.72 45.9798 105.74 45.8791L106.042 44.005L101.877 43.9043L102.44 45.8992C102.44 46 102.5 46.0605 102.601 46.0605Z" fill="white"/>
<path d="M62.398 46.6448C63.1223 46.6448 63.8467 46.5441 64.5309 46.3224C64.6315 46.2821 64.6918 46.2015 64.6918 46.1008V42.9169L56.3614 42.6952C57.4279 45.1133 59.5406 46.6448 62.398 46.6448Z" fill="white"/>
<path d="M38.2317 50.9169H36.9238V50.3124C36.9238 50.2116 36.8634 50.1511 36.7427 50.1511H36.4811C36.3603 50.1511 36.3 50.2116 36.3 50.3124V52.9924C36.3 53.0932 36.3603 53.1537 36.4811 53.1537H36.7628C36.8835 53.1537 36.9439 53.0932 36.9439 52.9924V52.2065H36.5616V51.4005H38.2317V53.0932C38.2317 53.6977 37.8695 54 37.125 54H36.0585C35.314 54 34.9518 53.6977 34.9518 53.0932V50.2116C34.9518 49.607 35.314 49.3048 36.0585 49.3048H37.125C37.8695 49.3048 38.2317 49.607 38.2317 50.2116V50.9169Z" fill="white"/>
<path d="M52.2767 53.9798L52.1157 53.2745H50.9487L50.7876 53.9798H49.4798L50.7273 49.3048H52.337L53.5846 53.9798H52.2767ZM51.17 52.3678H51.9346L51.5724 50.6751L51.17 52.3678Z" fill="white"/>
<path d="M66.1406 53.9798H64.9534V49.3048H66.3821L67.1869 51.8035L67.9717 49.3048H69.4003V53.9798H68.2333V51.0176L67.6296 52.9924H66.7241L66.1204 51.0378L66.1406 53.9798Z" fill="white"/>
<path d="M81.0709 49.3048H82.3989V53.9798H81.0709V49.3048Z" fill="white"/>
<path d="M96.2627 49.3048H97.47V53.9798H96.3435L95.2568 51.5214V53.9798H94.0495V49.3048H95.1764L96.2627 51.8035V49.3048Z" fill="white"/>
<path d="M112.38 50.9169H111.073V50.3124C111.073 50.2116 111.012 50.1511 110.892 50.1511H110.61C110.489 50.1511 110.429 50.2116 110.429 50.3124V52.9924C110.429 53.0932 110.489 53.1537 110.61 53.1537H110.871C110.992 53.1537 111.053 53.0932 111.053 52.9924V52.2065H110.67V51.4005H112.38V53.0932C112.38 53.6977 112.018 54 111.274 54H110.207C109.463 54 109.1 53.6977 109.1 53.0932V50.2116C109.1 49.607 109.463 49.3048 110.207 49.3048H111.274C112.018 49.3048 112.38 49.607 112.38 50.2116V50.9169Z" fill="white"/>
</g>
<defs>
<clipPath id="clip0_75_23781">
<rect width="84.5323" height="24" fill="white" transform="translate(33 30)"/>
</clipPath>
</defs>
</svg>
