<svg width="151" height="84" viewBox="0 0 151 84" fill="none" xmlns="http://www.w3.org/2000/svg">
<g clip-path="url(#clip0_75_23785)">
<path d="M34.2168 31H36.1197L36.1124 32.7123C36.1124 32.8517 36.043 32.9213 35.9042 32.9213L34.4104 32.9177C34.2813 32.9152 34.2168 32.8504 34.2168 32.7233V31Z" fill="white"/>
<path d="M36.4746 31H38.33L38.3446 32.683C38.347 32.8419 38.2691 32.9213 38.1109 32.9213L36.6645 32.9103C36.5379 32.9103 36.4746 32.8468 36.4746 32.7197V31Z" fill="white"/>
<path d="M38.6987 31H40.5286L40.5578 32.672C40.5602 32.8407 40.4786 32.9238 40.3131 32.9213L38.874 32.9103C38.7401 32.9103 38.6744 32.8431 38.6768 32.7087L38.6987 31Z" fill="white"/>
<path d="M40.937 31H42.7266L42.7558 32.6683C42.7607 32.8346 42.6791 32.9177 42.5111 32.9177H41.1305C40.9747 32.9177 40.898 32.8394 40.9004 32.683L40.937 31Z" fill="white"/>
<path d="M43.1431 31H44.9875L44.9912 32.6977C44.9912 32.8443 44.9181 32.9177 44.772 32.9177L43.3366 32.9213C43.1905 32.9213 43.1187 32.8492 43.1212 32.705L43.1431 31Z" fill="white"/>
<path d="M45.4002 31H47.1899L47.2008 32.6903C47.2008 32.7497 47.1777 32.8065 47.1367 32.8485C47.0956 32.8904 47.0398 32.914 46.9817 32.914L45.5902 32.925C45.427 32.9274 45.3479 32.8456 45.3528 32.6793L45.4002 31Z" fill="white"/>
<path d="M47.5995 31H49.4294L49.4221 32.661C49.4211 32.7284 49.3937 32.7928 49.3459 32.8401C49.2981 32.8875 49.2336 32.914 49.1664 32.914L47.7895 32.925C47.6312 32.925 47.5533 32.8456 47.5557 32.6867L47.5995 31Z" fill="white"/>
<path d="M49.7939 31H51.6639L51.6456 32.6683C51.6457 32.7241 51.6238 32.7777 51.5849 32.8174C51.546 32.8572 51.493 32.88 51.4375 32.881L49.9984 32.9103C49.8523 32.9128 49.7793 32.8394 49.7793 32.6903L49.7939 31Z" fill="#FF4B00"/>
<path d="M62.709 31H64.6045L64.5972 32.7087C64.5972 32.8431 64.5303 32.9103 64.3964 32.9103L62.9573 32.9177C62.7966 32.9177 62.7163 32.837 62.7163 32.6757L62.709 31Z" fill="#FFB919"/>
<path d="M64.9189 31H66.8109L66.8218 32.694C66.8218 32.8431 66.7476 32.9177 66.599 32.9177H65.16C65.0066 32.9177 64.9299 32.8407 64.9299 32.6867L64.9189 31Z" fill="white"/>
<path d="M67.1831 31H69.0166L69.0422 32.672C69.047 32.8382 68.9655 32.9213 68.7974 32.9213L67.3621 32.9103C67.2257 32.9103 67.1588 32.8431 67.1612 32.7087L67.1831 31Z" fill="white"/>
<path d="M69.4252 31H71.2112L71.2404 32.6683C71.2428 32.8346 71.1612 32.9177 70.9957 32.9177H69.6151C69.4568 32.9177 69.3801 32.8394 69.385 32.683L69.4252 31Z" fill="white"/>
<path d="M71.6311 31H73.4792L73.4573 32.727C73.4548 32.8541 73.3903 32.9177 73.2637 32.9177L71.8174 32.9213C71.6737 32.9213 71.6031 32.8492 71.6055 32.705L71.6311 31Z" fill="white"/>
<path d="M84.5905 31H87.622C88.8199 31.4204 89.2558 32.3102 88.9295 33.6693C88.9003 33.7891 88.8297 33.8722 88.7177 33.9187C88.4231 34.0409 88.2648 34.2621 88.2429 34.5823C88.2331 34.6923 88.1735 34.7473 88.0639 34.7473H86.2195C86.0782 34.7473 86.0076 34.8182 86.0076 34.96L86.0113 36.8007C86.0113 36.9107 85.9565 36.9657 85.8469 36.9657L84.7038 36.973C84.5942 36.973 84.5406 36.918 84.543 36.808L84.5905 31ZM87.5963 32.8729C87.5955 32.8161 87.5731 32.7602 87.5304 32.7083C87.4876 32.6564 87.4253 32.6095 87.3471 32.5705C87.2689 32.5314 87.1763 32.5008 87.0745 32.4805C86.9727 32.4602 86.8638 32.4505 86.754 32.452C86.6442 32.4536 86.5356 32.4663 86.4344 32.4895C86.3332 32.5126 86.2415 32.5458 86.1644 32.587C86.0873 32.6283 86.0264 32.6769 85.9851 32.7299C85.9438 32.783 85.9229 32.8396 85.9237 32.8964C85.9245 32.9532 85.9469 33.0092 85.9897 33.0611C86.0324 33.113 86.0947 33.1598 86.1729 33.1989C86.2511 33.238 86.3438 33.2685 86.4455 33.2889C86.5473 33.3092 86.6562 33.3188 86.766 33.3173C86.8759 33.3158 86.9845 33.303 87.0856 33.2799C87.1868 33.2567 87.2786 33.2236 87.3557 33.1823C87.4328 33.141 87.4937 33.0925 87.535 33.0394C87.5763 32.9863 87.5971 32.9297 87.5963 32.8729Z" fill="white"/>
<path d="M90.9998 31H92.9027C93.6806 31.2897 94.2102 31.7553 94.2394 32.6683C94.2796 33.7793 94.4111 35.884 93.7391 36.5623C92.9283 37.3727 90.0466 37.116 89.8238 35.675C89.4317 33.1548 89.8238 31.5964 90.9998 31ZM92.7896 32.9847C92.7894 32.9158 92.7756 32.8477 92.7492 32.7841C92.7227 32.7206 92.684 32.663 92.6353 32.6144C92.5867 32.5659 92.529 32.5275 92.4655 32.5014C92.4021 32.4752 92.3341 32.4619 92.2655 32.4622L91.7761 32.4639C91.6376 32.4644 91.5049 32.5201 91.4073 32.6187C91.3097 32.7174 91.2552 32.851 91.2556 32.99L91.2626 35.014C91.2629 35.0829 91.2766 35.151 91.3031 35.2145C91.3296 35.278 91.3682 35.3357 91.4169 35.3842C91.4656 35.4328 91.5233 35.4712 91.5867 35.4973C91.6502 35.5234 91.7182 35.5368 91.7867 35.5365L92.2762 35.5348C92.4147 35.5343 92.5473 35.4786 92.6449 35.3799C92.7425 35.2813 92.7971 35.1477 92.7966 35.0087L92.7896 32.9847Z" fill="white"/>
<path d="M96.2194 31H98.3706C99.347 31.6698 99.6989 32.276 99.4262 32.8187C99.363 32.9452 99.2675 33.0525 99.1495 33.1298C99.0314 33.2072 98.8951 33.2516 98.7543 33.2587C98.6135 33.2658 98.4734 33.2352 98.3483 33.1702C98.2231 33.1051 98.1174 33.0078 98.0419 32.8883C97.7449 32.4166 97.2798 32.32 96.6467 32.5987C96.5469 32.6427 96.4933 32.7197 96.486 32.8297C96.4386 33.5117 96.0916 36.126 97.589 35.499C97.7059 35.4501 97.7972 35.3719 97.863 35.2643C98.1746 34.7583 98.6543 34.6019 99.302 34.795C99.431 34.8317 99.4968 34.9172 99.4992 35.0517C99.5394 36.2287 98.8199 36.9107 97.6511 36.9877C96.7125 37.0463 95.3502 37.083 95.2187 35.8987C95.0823 34.6984 95.0117 33.497 95.0068 32.2943C95.0068 32.1697 95.0434 32.0572 95.1164 31.957C95.4281 31.5439 95.7957 31.2249 96.2194 31Z" fill="white"/>
<path d="M100.376 31H101.639L101.694 33.0643C101.695 33.1204 101.718 33.174 101.757 33.2137C101.797 33.2533 101.85 33.2761 101.906 33.277L102.929 33.2917C102.996 33.2928 103.062 33.2681 103.112 33.2225C103.162 33.1768 103.193 33.1137 103.199 33.046L103.352 31H104.7L104.693 33.013C104.693 33.1303 104.634 33.1963 104.517 33.211L104.141 33.2623C104.019 33.277 103.958 33.3454 103.958 33.4677L103.955 34.487C103.955 34.6703 104.046 34.762 104.229 34.762L104.503 34.7583C104.533 34.7583 104.562 34.7643 104.59 34.776C104.618 34.7876 104.643 34.8047 104.664 34.8262C104.685 34.8477 104.702 34.8732 104.713 34.9012C104.724 34.9292 104.73 34.9592 104.729 34.9893L104.696 36.7713C104.694 36.9009 104.629 36.9657 104.503 36.9657L103.44 36.9803C103.296 36.9828 103.224 36.9119 103.224 36.7677L103.228 34.9307C103.228 34.9044 103.223 34.8783 103.213 34.854C103.203 34.8298 103.188 34.8078 103.169 34.7893C103.15 34.7709 103.128 34.7564 103.104 34.7467C103.079 34.7369 103.053 34.7322 103.027 34.7327L101.924 34.751C101.788 34.7534 101.72 34.8231 101.72 34.96L101.727 36.797C101.727 36.9119 101.67 36.9693 101.555 36.9693H100.46C100.33 36.9693 100.267 36.9058 100.27 36.7787L100.376 31Z" fill="white"/>
<path d="M105.507 31H109.989L109.956 32.3127C109.953 32.4202 109.899 32.474 109.792 32.474L107.144 32.4813C107.109 32.4814 107.074 32.4891 107.042 32.5039C107.01 32.5187 106.982 32.5404 106.96 32.5672C106.937 32.5941 106.921 32.6256 106.911 32.6595C106.902 32.6935 106.9 32.729 106.906 32.7637L106.961 33.0753C106.97 33.1317 106.999 33.1828 107.043 33.2197C107.086 33.2566 107.141 33.2769 107.198 33.277L108.988 33.2733C109.132 33.2733 109.203 33.3454 109.203 33.4897V34.5457C109.203 34.5982 109.183 34.6485 109.146 34.6857C109.109 34.7228 109.059 34.7437 109.006 34.7437L107.14 34.751C107.006 34.751 106.943 34.817 106.95 34.949L106.965 35.3157C106.972 35.4379 107.035 35.499 107.155 35.499H109.784C109.806 35.4985 109.828 35.5024 109.848 35.5105C109.869 35.5186 109.887 35.5306 109.903 35.546C109.918 35.5614 109.931 35.5797 109.939 35.6C109.948 35.6203 109.952 35.642 109.952 35.664L109.963 36.7897C109.963 36.9119 109.902 36.973 109.781 36.973L105.694 36.9693C105.565 36.9693 105.5 36.9058 105.5 36.7787L105.507 31Z" fill="white"/>
<path d="M110.737 31H115.193L115.178 32.2907C115.178 32.4153 115.117 32.4777 114.996 32.4777L113.889 32.474C113.762 32.474 113.699 32.5376 113.699 32.6647V36.7933C113.699 36.9107 113.639 36.9693 113.52 36.9693L112.381 36.973C112.269 36.973 112.213 36.9168 112.213 36.8043L112.216 32.7233C112.216 32.6906 112.21 32.6582 112.197 32.6279C112.185 32.5977 112.167 32.5702 112.144 32.547C112.12 32.5239 112.093 32.5055 112.063 32.493C112.033 32.4804 112.001 32.474 111.968 32.474H110.887C110.772 32.4764 110.716 32.4202 110.719 32.3053L110.737 31Z" fill="white"/>
<path d="M118.962 31H121.219C121.287 31.1124 121.314 31.2396 121.299 31.3813C121.287 31.4962 121.224 31.5537 121.109 31.5537H120.609C120.456 31.5537 120.379 31.6307 120.379 31.7847L120.383 34.5237C120.383 34.6703 120.31 34.7473 120.164 34.7547L120.017 34.7583C119.888 34.7657 119.824 34.7033 119.824 34.5713L119.828 31.8213C119.828 31.6453 119.739 31.5561 119.561 31.5537L119.028 31.55C118.977 31.5491 118.928 31.5283 118.892 31.492C118.856 31.4558 118.835 31.4069 118.834 31.3557C118.832 31.2237 118.874 31.1051 118.962 31Z" fill="white"/>
<path d="M121.847 31H122.428L123.553 33.1817C123.626 33.3259 123.698 33.3259 123.768 33.1817L124.85 31H125.5V34.6593C125.344 34.7498 125.206 34.7828 125.087 34.7583C124.948 34.729 124.88 34.6422 124.882 34.498L124.897 32.6353C124.897 32.6085 124.889 32.5823 124.872 32.5612C124.856 32.54 124.832 32.5252 124.806 32.5192C124.78 32.5132 124.753 32.5164 124.729 32.5282C124.705 32.5399 124.686 32.5597 124.674 32.584L124.119 33.7463C124.079 33.8302 124.016 33.9011 123.937 33.9511C123.859 34.0011 123.768 34.0282 123.675 34.0293C123.582 34.0304 123.491 34.0056 123.411 33.9576C123.332 33.9095 123.267 33.8402 123.224 33.7573L122.585 32.4923C122.574 32.4696 122.556 32.4514 122.533 32.4406C122.51 32.4299 122.485 32.4273 122.46 32.4333C122.436 32.4394 122.414 32.4536 122.399 32.4737C122.384 32.4938 122.376 32.5185 122.377 32.5437L122.384 34.531C122.384 34.5893 122.361 34.6453 122.32 34.6866C122.279 34.7278 122.223 34.751 122.165 34.751H122.037C121.898 34.751 121.829 34.6801 121.829 34.5383L121.847 31Z" fill="white"/>
<path d="M32 33.1963L33.7166 33.2146C33.8481 33.2146 33.9138 33.2806 33.9138 33.4126L33.9175 34.938C33.9175 35.0528 33.8603 35.1091 33.7458 35.1066L32 35.0626V33.1963Z" fill="#6414E6"/>
<path d="M35.9721 33.2279L34.3578 33.2307C34.2751 33.2308 34.2081 33.2983 34.2083 33.3813L34.211 34.98C34.2112 35.063 34.2784 35.1302 34.3611 35.13L35.9754 35.1272C36.0581 35.1271 36.125 35.0596 36.1249 34.9766L36.1221 33.3779C36.1219 33.2949 36.0548 33.2277 35.9721 33.2279Z" fill="white"/>
<path d="M38.1914 33.2266L36.6063 33.2321C36.5195 33.2324 36.4495 33.3033 36.4498 33.3903L36.4553 34.9743C36.4556 35.0614 36.5261 35.1317 36.6129 35.1314L38.198 35.1259C38.2847 35.1256 38.3548 35.0547 38.3545 34.9677L38.349 33.3837C38.3487 33.2966 38.2781 33.2263 38.1914 33.2266Z" fill="white"/>
<path d="M40.4162 33.2269L38.8238 33.2242C38.735 33.224 38.663 33.2961 38.6628 33.3852L38.6601 34.9692C38.6599 35.0583 38.7317 35.1307 38.8205 35.1308L40.4129 35.1336C40.5016 35.1338 40.5737 35.0617 40.5739 34.9726L40.5766 33.3886C40.5768 33.2995 40.505 33.2271 40.4162 33.2269Z" fill="white"/>
<path d="M42.635 33.2286L41.0279 33.2229C40.9472 33.2226 40.8816 33.2881 40.8813 33.3691L40.8757 34.9824C40.8754 35.0634 40.9406 35.1293 41.0213 35.1296L42.6283 35.1352C42.709 35.1355 42.7746 35.0701 42.7749 34.9891L42.7805 33.3757C42.7808 33.2947 42.7156 33.2288 42.635 33.2286Z" fill="white"/>
<path d="M44.8471 33.2279L43.2547 33.2307C43.168 33.2308 43.0978 33.3015 43.0979 33.3886L43.1007 34.9726C43.1008 35.0597 43.1713 35.1302 43.258 35.13L44.8504 35.1272C44.9372 35.1271 45.0074 35.0564 45.0072 34.9693L45.0045 33.3853C45.0043 33.2982 44.9339 33.2277 44.8471 33.2279Z" fill="white"/>
<path d="M47.0634 33.2335L45.4929 33.2253C45.3981 33.2248 45.3209 33.3015 45.3204 33.3967L45.3123 34.9513C45.3118 35.0465 45.3882 35.1241 45.483 35.1246L47.0535 35.1328C47.1483 35.1333 47.2256 35.0566 47.2261 34.9614L47.2342 33.4068C47.2347 33.3116 47.1582 33.234 47.0634 33.2335Z" fill="white"/>
<path d="M49.2576 33.2256H47.7017C47.6049 33.2256 47.5264 33.3044 47.5264 33.4016V34.9563C47.5264 35.0535 47.6049 35.1323 47.7017 35.1323H49.2576C49.3544 35.1323 49.4329 35.0535 49.4329 34.9563V33.4016C49.4329 33.3044 49.3544 33.2256 49.2576 33.2256Z" fill="white"/>
<path d="M51.489 33.2249L49.9112 33.2193C49.8184 33.219 49.7429 33.2943 49.7426 33.3874L49.7371 34.9567C49.7368 35.0499 49.8118 35.1257 49.9045 35.126L51.4823 35.1315C51.5751 35.1318 51.6506 35.0566 51.6509 34.9634L51.6564 33.3941C51.6567 33.301 51.5818 33.2252 51.489 33.2249Z" fill="white"/>
<path d="M62.2292 33.2142L60.6368 33.2226C60.5521 33.223 60.4838 33.2923 60.4842 33.3774L60.4926 34.9834C60.493 35.0684 60.5621 35.137 60.6468 35.1366L62.2392 35.1282C62.3239 35.1277 62.3922 35.0584 62.3918 34.9734L62.3834 33.3674C62.383 33.2824 62.3139 33.2138 62.2292 33.2142Z" fill="white"/>
<path d="M64.4477 33.2192L62.8333 33.2248C62.7506 33.2251 62.6838 33.2926 62.6841 33.3757L62.6897 34.9817C62.69 35.0647 62.7573 35.1318 62.84 35.1315L64.4543 35.1258C64.537 35.1255 64.6038 35.058 64.6035 34.975L64.5979 33.369C64.5976 33.2859 64.5304 33.2189 64.4477 33.2192Z" fill="white"/>
<path d="M66.7018 33.2337L65.0655 33.2251C64.9889 33.2247 64.9264 33.2867 64.926 33.3637L64.9176 34.9843C64.9172 35.0613 64.979 35.124 65.0556 35.1244L66.6919 35.133C66.7685 35.1334 66.831 35.0714 66.8314 34.9944L66.8398 33.3738C66.8402 33.2968 66.7784 33.2341 66.7018 33.2337Z" fill="white"/>
<path d="M68.8999 33.2256H67.3074C67.2207 33.2256 67.1504 33.2962 67.1504 33.3833V34.9746C67.1504 35.0617 67.2207 35.1323 67.3074 35.1323H68.8999C68.9866 35.1323 69.0569 35.0617 69.0569 34.9746V33.3833C69.0569 33.2962 68.9866 33.2256 68.8999 33.2256Z" fill="white"/>
<path d="M71.1315 33.2219H69.4879C69.4153 33.2219 69.3564 33.281 69.3564 33.3539V34.9966C69.3564 35.0695 69.4153 35.1286 69.4879 35.1286H71.1315C71.2041 35.1286 71.263 35.0695 71.263 34.9966V33.3539C71.263 33.281 71.2041 33.2219 71.1315 33.2219Z" fill="white"/>
<path d="M73.3205 33.2308L71.75 33.2281C71.6573 33.2279 71.5819 33.3033 71.5817 33.3964L71.579 34.9584C71.5789 35.0516 71.6539 35.1272 71.7467 35.1274L73.3172 35.1302C73.41 35.1303 73.4854 35.0549 73.4855 34.9618L73.4883 33.3998C73.4884 33.3066 73.4133 33.231 73.3205 33.2308Z" fill="white"/>
<path d="M75.5169 33.2285L73.9829 33.2231C73.878 33.2227 73.7927 33.3078 73.7923 33.4131L73.787 34.9384C73.7866 35.0437 73.8714 35.1294 73.9763 35.1297L75.5102 35.1351C75.6151 35.1355 75.7005 35.0504 75.7008 34.9451L75.7061 33.4198C75.7065 33.3145 75.6218 33.2288 75.5169 33.2285Z" fill="white"/>
<path d="M77.7678 33.2219H76.1753C76.0866 33.2219 76.0146 33.2942 76.0146 33.3833V34.9673C76.0146 35.0564 76.0866 35.1286 76.1753 35.1286H77.7678C77.8565 35.1286 77.9285 35.0564 77.9285 34.9673V33.3833C77.9285 33.2942 77.8565 33.2219 77.7678 33.2219Z" fill="white"/>
<path d="M32 37.3251V35.4624L33.6837 35.4551C33.7139 35.4551 33.7439 35.4611 33.7718 35.4727C33.7997 35.4843 33.8251 35.5013 33.8464 35.5227C33.8678 35.5442 33.8847 35.5697 33.8963 35.5977C33.9079 35.6257 33.9138 35.6557 33.9138 35.6861V37.1381C33.9138 37.2725 33.8481 37.3385 33.7166 37.3361L32 37.3251Z" fill="white"/>
<path d="M35.9604 35.4674L34.368 35.4646C34.2813 35.4645 34.2108 35.5349 34.2107 35.622L34.2079 37.1987C34.2078 37.2858 34.278 37.3565 34.3647 37.3566L35.9571 37.3594C36.0439 37.3596 36.1143 37.2891 36.1144 37.202L36.1172 35.6254C36.1173 35.5383 36.0471 35.4676 35.9604 35.4674Z" fill="white"/>
<path d="M49.2948 35.4566L47.6586 35.468C47.5839 35.4686 47.5239 35.5297 47.5244 35.6047L47.5357 37.2253C47.5362 37.3002 47.5971 37.3605 47.6717 37.36L49.3079 37.3485C49.3826 37.348 49.4426 37.2868 49.4421 37.2119L49.4309 35.5913C49.4303 35.5164 49.3694 35.4561 49.2948 35.4566Z" fill="white"/>
<path d="M51.466 35.4555L49.8955 35.4692C49.8028 35.47 49.7282 35.5462 49.729 35.6394L49.7426 37.2013C49.7434 37.2945 49.8193 37.3693 49.9121 37.3685L51.4825 37.3547C51.5753 37.3539 51.6498 37.2777 51.649 37.1846L51.6355 35.6227C51.6346 35.5295 51.5588 35.4547 51.466 35.4555Z" fill="white"/>
<path d="M53.7089 35.4445L52.1311 35.4583C52.0404 35.4591 51.9674 35.5336 51.9682 35.6247L51.9819 37.2013C51.9827 37.2924 52.057 37.3657 52.1477 37.3649L53.7255 37.351C53.8162 37.3503 53.8892 37.2757 53.8884 37.1846L53.8747 35.608C53.8739 35.5169 53.7997 35.4437 53.7089 35.4445Z" fill="white"/>
<path d="M59.9773 35.4348L58.4361 35.4457C58.3473 35.4463 58.2759 35.519 58.2765 35.6081L58.2876 37.2067C58.2882 37.2958 58.3607 37.3676 58.4495 37.3669L59.9907 37.3561C60.0795 37.3555 60.1509 37.2828 60.1503 37.1937L60.1392 35.5951C60.1385 35.506 60.0661 35.4342 59.9773 35.4348Z" fill="#E61973"/>
<path d="M62.2194 35.4485L60.6416 35.454C60.5489 35.4543 60.4739 35.5301 60.4742 35.6233L60.4797 37.1926C60.48 37.2857 60.5555 37.361 60.6483 37.3607L62.2261 37.3551C62.3189 37.3548 62.3938 37.279 62.3935 37.1859L62.388 35.6165C62.3877 35.5234 62.3122 35.4481 62.2194 35.4485Z" fill="white"/>
<path d="M64.4935 35.4646L62.7915 35.4676C62.733 35.4677 62.6856 35.5154 62.6857 35.5741L62.6886 37.2461C62.6887 37.3048 62.7362 37.3524 62.7947 37.3523L64.4967 37.3493C64.5552 37.3492 64.6026 37.3015 64.6025 37.2428L64.5996 35.5708C64.5995 35.512 64.552 35.4645 64.4935 35.4646Z" fill="white"/>
<path d="M75.5734 35.4566L73.9298 35.4681C73.8613 35.4686 73.8061 35.5248 73.8065 35.5937L73.818 37.2363C73.8184 37.3051 73.8744 37.3606 73.943 37.3601L75.5865 37.3486C75.6551 37.3481 75.7103 37.2919 75.7098 37.223L75.6984 35.5804C75.6979 35.5115 75.6419 35.4561 75.5734 35.4566Z" fill="white"/>
<path d="M77.7609 35.4604L76.1685 35.4715C76.0798 35.4722 76.0083 35.5449 76.0089 35.634L76.0198 37.2033C76.0205 37.2924 76.0929 37.3641 76.1817 37.3635L77.7741 37.3523C77.8628 37.3517 77.9342 37.279 77.9336 37.1899L77.9227 35.6206C77.9221 35.5315 77.8496 35.4597 77.7609 35.4604Z" fill="white"/>
<path d="M32 39.5287V37.6807L33.7349 37.7063C33.8566 37.7088 33.9175 37.7699 33.9175 37.8897V39.3563C33.9175 39.4932 33.8493 39.5604 33.7129 39.558L32 39.5287Z" fill="white"/>
<path d="M35.9579 37.6973L34.3802 37.6862C34.2894 37.6856 34.2153 37.7589 34.2147 37.8501L34.2038 39.4193C34.2031 39.5105 34.2762 39.5849 34.367 39.5855L35.9447 39.5966C36.0355 39.5972 36.1096 39.5238 36.1102 39.4327L36.1211 37.8634C36.1218 37.7723 36.0487 37.6979 35.9579 37.6973Z" fill="white"/>
<path d="M51.4546 37.6802L49.928 37.6883C49.8291 37.6888 49.7494 37.7696 49.75 37.8689L49.7581 39.4235C49.7586 39.5227 49.8391 39.6028 49.938 39.6022L51.4646 39.5942C51.5635 39.5937 51.6432 39.5128 51.6427 39.4136L51.6345 37.859C51.634 37.7597 51.5535 37.6797 51.4546 37.6802Z" fill="white"/>
<path d="M53.7022 37.688H52.1463C52.0515 37.688 51.9746 37.7651 51.9746 37.8603V39.415C51.9746 39.5102 52.0515 39.5873 52.1463 39.5873H53.7022C53.797 39.5873 53.8738 39.5102 53.8738 39.415V37.8603C53.8738 37.7651 53.797 37.688 53.7022 37.688Z" fill="white"/>
<path d="M59.9757 37.6839L58.4417 37.692C58.3509 37.6925 58.2777 37.7667 58.2782 37.8579L58.2864 39.4345C58.2869 39.5256 58.3609 39.5991 58.4516 39.5986L59.9856 39.5906C60.0764 39.5901 60.1496 39.5158 60.1491 39.4247L60.1409 37.8481C60.1404 37.757 60.0664 37.6835 59.9757 37.6839Z" fill="white"/>
<path d="M62.2272 37.688H60.6421C60.5453 37.688 60.4668 37.7668 60.4668 37.864V39.4187C60.4668 39.5159 60.5453 39.5947 60.6421 39.5947H62.2272C62.324 39.5947 62.4025 39.5159 62.4025 39.4187V37.864C62.4025 37.7668 62.324 37.688 62.2272 37.688Z" fill="white"/>
<path d="M85.9922 40.7058L85.9666 43.1624C85.9642 43.3213 86.0433 43.4081 86.204 43.4228L87.2815 43.5108C87.3729 43.5222 87.4652 43.4979 87.5392 43.4427C87.6132 43.3876 87.6631 43.3059 87.6786 43.2148C87.6942 43.1236 87.6741 43.0299 87.6225 42.9532C87.571 42.8766 87.492 42.8228 87.402 42.8031C86.7446 42.6271 86.5693 42.1578 86.8761 41.3951C86.9223 41.2778 87.0075 41.2191 87.1317 41.2191H88.7534C88.9092 41.2191 88.9871 41.2973 88.9871 41.4538L88.9908 43.7271C88.9908 43.8284 88.953 43.9254 88.8848 43.9984L88.1142 44.8528C88.0923 44.877 88.0658 44.8964 88.0362 44.9096C88.0066 44.9229 87.9747 44.9298 87.9425 44.9298L85.5466 44.9554C85.4273 44.9554 85.3591 44.8955 85.3421 44.7758C85.2958 44.392 85.1022 44.194 84.7613 44.1818C84.608 44.1769 84.5312 44.0974 84.5312 43.9434L84.5349 39.8844C84.5349 39.7671 84.5946 39.7133 84.7139 39.7231C85.0913 39.7549 85.2848 39.5728 85.2946 39.1768C85.2995 39.0423 85.3689 38.9751 85.5028 38.9751H88.0667C88.1885 38.9751 88.2493 39.0374 88.2493 39.1621V40.2548C88.2493 40.3794 88.1885 40.4418 88.0667 40.4418L86.2479 40.4491C86.1807 40.4491 86.1162 40.476 86.0683 40.5241C86.0205 40.5721 85.9931 40.6374 85.9922 40.7058Z" fill="white"/>
<path d="M91.2558 43.6536V44.7536C91.2582 44.8758 91.1973 44.9369 91.0731 44.9369L89.992 44.9443C89.8679 44.9443 89.8046 44.8819 89.8021 44.7573C89.7778 43.4446 89.7729 42.1368 89.7875 40.8339C89.8094 39.0593 90.9526 38.9529 92.3515 38.9603C93.7004 38.9701 94.3469 39.7413 94.2909 41.2739C94.2495 42.4253 94.2215 43.5791 94.2069 44.7353C94.2044 44.8648 94.1387 44.9308 94.0096 44.9333L92.987 44.9406C92.853 44.9431 92.7861 44.8771 92.7861 44.7426L92.7824 43.7013C92.7824 43.5424 92.7033 43.4629 92.545 43.4629L91.4384 43.4666C91.3899 43.4666 91.3435 43.4863 91.3092 43.5214C91.275 43.5564 91.2558 43.604 91.2558 43.6536ZM92.7949 40.8333C92.796 40.7847 92.7876 40.7363 92.7701 40.691C92.7525 40.6456 92.7263 40.6042 92.6928 40.569C92.6594 40.5339 92.6193 40.5057 92.575 40.486C92.5307 40.4664 92.4829 40.4557 92.4345 40.4546L91.6312 40.4363C91.5334 40.4341 91.4387 40.471 91.368 40.5388C91.2972 40.6067 91.2563 40.7 91.254 40.7982L91.236 41.5973C91.2349 41.6459 91.2433 41.6943 91.2608 41.7396C91.2783 41.7849 91.3046 41.8264 91.3381 41.8615C91.3715 41.8967 91.4116 41.9249 91.4559 41.9445C91.5002 41.9642 91.5479 41.9748 91.5964 41.9759L92.3997 41.9942C92.4975 41.9964 92.5922 41.9596 92.6629 41.8917C92.7336 41.8239 92.7746 41.7306 92.7768 41.6324L92.7949 40.8333Z" fill="white"/>
<path d="M98.5421 42.693L98.2024 42.7004C98.0392 42.7053 97.9638 42.7884 97.9759 42.9497C97.9832 43.067 97.9832 43.1538 97.9759 43.21C97.9633 43.3013 97.9162 43.3841 97.8445 43.4415C97.7727 43.4989 97.6817 43.5264 97.5904 43.5184C97.499 43.5104 97.4141 43.4675 97.3533 43.3985C97.2926 43.3295 97.2605 43.2398 97.2637 43.1477L97.2747 42.8947C97.2762 42.8681 97.2722 42.8415 97.2629 42.8166C97.2536 42.7917 97.2392 42.769 97.2206 42.75C97.202 42.731 97.1797 42.7161 97.155 42.7063C97.1304 42.6965 97.104 42.692 97.0775 42.693L96.6611 42.704C96.5345 42.7089 96.4712 42.7749 96.4712 42.902L96.4748 44.75C96.4748 44.8772 96.4103 44.9407 96.2813 44.9407H95.2403C95.0894 44.9407 95.0139 44.8649 95.0139 44.7134L95.0029 39.305C95.0033 39.247 95.0206 39.1904 95.0527 39.1421C95.0847 39.0939 95.1302 39.0561 95.1834 39.0335C95.2367 39.0108 95.2953 39.0044 95.3522 39.0148C95.409 39.0253 95.4615 39.0523 95.5033 39.0924L97.0555 40.614C97.1456 40.702 97.2077 40.8072 97.2418 40.9294C97.3051 41.164 97.478 41.2765 97.7605 41.2667C97.7955 41.2651 97.8298 41.2561 97.8611 41.2402C97.8924 41.2243 97.92 41.202 97.9421 41.1746C97.9642 41.1472 97.9803 41.1155 97.9893 41.0814C97.9982 41.0474 97.9999 41.0118 97.9942 40.977C97.9358 40.6373 98.0648 40.4662 98.3813 40.4637C98.5445 40.4637 98.6419 40.3843 98.6735 40.2254C98.7344 39.9223 98.9146 39.7475 99.2141 39.701C99.365 39.679 99.4503 39.5923 99.4697 39.4407L99.5026 39.195C99.5145 39.1048 99.56 39.0228 99.6298 38.9655C99.6996 38.9081 99.7887 38.8795 99.8792 38.8856C99.9697 38.8916 100.055 38.9317 100.118 38.998C100.181 39.0642 100.217 39.1516 100.218 39.2427L100.215 44.7464C100.215 44.8735 100.153 44.937 100.029 44.937L98.9329 44.9407C98.8087 44.9407 98.7466 44.8784 98.7466 44.7537V42.8947C98.7466 42.7578 98.6784 42.6906 98.5421 42.693Z" fill="white"/>
<path d="M102.593 43.4668H105.347C105.379 43.4668 105.409 43.4795 105.432 43.5022C105.455 43.5249 105.467 43.5557 105.467 43.5878L105.46 44.8198C105.46 44.8357 105.457 44.8514 105.451 44.8661C105.445 44.8807 105.436 44.8941 105.425 44.9053C105.413 44.9166 105.4 44.9255 105.386 44.9316C105.371 44.9376 105.355 44.9408 105.339 44.9408H101.114C101.082 44.9408 101.051 44.928 101.028 44.9053C101.006 44.8826 100.993 44.8519 100.993 44.8198L100.997 39.0961C100.997 39.064 101.01 39.0332 101.032 39.0105C101.055 38.9878 101.085 38.9751 101.117 38.9751H105.339C105.371 38.9751 105.402 38.9878 105.425 39.0105C105.447 39.0332 105.46 39.064 105.46 39.0961L105.467 40.3244C105.467 40.3565 105.455 40.3873 105.432 40.41C105.409 40.4327 105.379 40.4454 105.347 40.4454H102.597C102.565 40.4454 102.534 40.4582 102.511 40.4809C102.489 40.5036 102.476 40.5343 102.476 40.5664L102.483 41.1054C102.483 41.1375 102.496 41.1683 102.519 41.191C102.541 41.2137 102.572 41.2264 102.604 41.2264L104.58 41.2154C104.596 41.2154 104.611 41.2186 104.626 41.2246C104.641 41.2307 104.654 41.2396 104.665 41.2509C104.676 41.2621 104.685 41.2754 104.691 41.2901C104.697 41.3048 104.7 41.3205 104.7 41.3364V42.5941C104.7 42.61 104.697 42.6257 104.691 42.6404C104.685 42.6551 104.676 42.6684 104.665 42.6797C104.654 42.6909 104.641 42.6998 104.626 42.7059C104.611 42.712 104.596 42.7151 104.58 42.7151L102.586 42.7041C102.569 42.7041 102.553 42.7073 102.539 42.7136C102.524 42.72 102.51 42.7292 102.499 42.7408C102.488 42.7525 102.479 42.7662 102.473 42.7813C102.467 42.7964 102.465 42.8126 102.465 42.8288L102.472 43.3494C102.473 43.3809 102.486 43.4107 102.509 43.4326C102.531 43.4545 102.562 43.4668 102.593 43.4668Z" fill="white"/>
<path d="M106.968 39.6021V39.0998C106.968 39.0667 106.981 39.035 107.005 39.0116C107.028 38.9882 107.059 38.9751 107.092 38.9751H110.584C110.617 38.9751 110.649 38.9882 110.672 39.0116C110.695 39.035 110.708 39.0667 110.708 39.0998V40.3208C110.708 40.3538 110.695 40.3855 110.672 40.4089C110.649 40.4323 110.617 40.4454 110.584 40.4454H107.841C107.81 40.4453 107.78 40.4569 107.757 40.478C107.734 40.499 107.72 40.528 107.717 40.5591L107.669 41.0834C107.668 41.1007 107.67 41.1181 107.676 41.1345C107.681 41.1509 107.69 41.166 107.702 41.1788C107.713 41.1916 107.728 41.2017 107.743 41.2087C107.759 41.2156 107.776 41.2192 107.794 41.2191H109.85C109.868 41.2188 109.886 41.2226 109.903 41.2302C109.92 41.2378 109.935 41.249 109.947 41.263C109.958 41.277 109.967 41.2935 109.972 41.3113C109.977 41.329 109.977 41.3477 109.974 41.3658L109.897 41.7911C109.894 41.808 109.895 41.8254 109.899 41.8422C109.903 41.859 109.91 41.8748 109.92 41.8885C109.93 41.9023 109.944 41.9138 109.958 41.9223C109.973 41.9308 109.99 41.936 110.007 41.9378L110.599 42.0038C110.629 42.0074 110.657 42.0221 110.677 42.0451C110.697 42.0681 110.708 42.0978 110.708 42.1284L110.705 44.0608C110.705 44.092 110.693 44.1222 110.672 44.1452C110.651 44.1683 110.622 44.1827 110.591 44.1854L110.029 44.2404C110.012 44.2422 109.996 44.2474 109.981 44.2556C109.967 44.2639 109.954 44.275 109.944 44.2884C109.933 44.3018 109.926 44.3171 109.922 44.3334C109.918 44.3497 109.917 44.3668 109.919 44.3834L109.978 44.7978C109.98 44.8156 109.979 44.8338 109.974 44.8511C109.969 44.8684 109.96 44.8844 109.949 44.898C109.937 44.9116 109.922 44.9225 109.906 44.9299C109.889 44.9372 109.872 44.941 109.854 44.9408H106.358C106.325 44.9408 106.294 44.9276 106.27 44.9043C106.247 44.8809 106.234 44.8492 106.234 44.8161L106.23 43.5914C106.23 43.5584 106.244 43.5267 106.267 43.5033C106.29 43.4799 106.322 43.4668 106.355 43.4668H109.123C109.156 43.4668 109.188 43.4536 109.211 43.4303C109.234 43.4069 109.247 43.3752 109.247 43.3421L109.24 42.8288C109.24 42.7957 109.227 42.764 109.204 42.7406C109.18 42.7172 109.149 42.7041 109.116 42.7041L107.085 42.7151C107.068 42.7151 107.052 42.7118 107.037 42.7053C107.021 42.6988 107.008 42.6893 106.996 42.6773C106.984 42.6653 106.975 42.6511 106.969 42.6356C106.963 42.62 106.96 42.6034 106.961 42.5868L106.979 42.0624C106.98 42.0448 106.977 42.0272 106.97 42.0109C106.963 41.9946 106.953 41.9798 106.94 41.9677C106.928 41.9556 106.912 41.9463 106.896 41.9405C106.879 41.9347 106.862 41.9325 106.844 41.9341L106.362 41.9671C106.345 41.9681 106.328 41.9656 106.312 41.9598C106.296 41.954 106.282 41.945 106.269 41.9333C106.257 41.9216 106.247 41.9075 106.241 41.8919C106.234 41.8763 106.23 41.8594 106.23 41.8424L106.234 39.8294C106.235 39.8131 106.238 39.7969 106.245 39.782C106.252 39.767 106.261 39.7536 106.273 39.7423C106.285 39.7311 106.299 39.7223 106.314 39.7165C106.329 39.7107 106.346 39.7079 106.362 39.7084L106.837 39.7268C106.854 39.7278 106.871 39.7253 106.887 39.7195C106.902 39.7136 106.917 39.7046 106.929 39.6929C106.942 39.6813 106.951 39.6672 106.958 39.6516C106.965 39.6359 106.968 39.6191 106.968 39.6021Z" fill="white"/>
<path d="M32 41.7359V39.9502L33.6983 39.9282C33.8444 39.9282 33.9175 40.0016 33.9175 40.1482V41.5636C33.917 41.5923 33.9109 41.6206 33.8996 41.6469C33.8883 41.6732 33.8719 41.697 33.8515 41.7168C33.8311 41.7366 33.8071 41.752 33.7808 41.7622C33.7545 41.7724 33.7265 41.7772 33.6983 41.7762L32 41.7359Z" fill="white"/>
<path d="M35.9492 39.9021L34.4006 39.8885C34.3018 39.8877 34.221 39.9674 34.2201 40.0666L34.2065 41.6286C34.2057 41.7278 34.2851 41.8089 34.3839 41.8098L35.9325 41.8234C36.0313 41.8242 36.1121 41.7445 36.113 41.6453L36.1266 40.0833C36.1274 39.9841 36.048 39.903 35.9492 39.9021Z" fill="white"/>
<path d="M51.4615 39.8931L49.9348 39.8905C49.836 39.8903 49.7557 39.9706 49.7555 40.0698L49.7528 41.6318C49.7527 41.731 49.8326 41.8116 49.9315 41.8118L51.4582 41.8145C51.557 41.8146 51.6373 41.7343 51.6374 41.6351L51.6402 40.0731C51.6403 39.9739 51.5603 39.8933 51.4615 39.8931Z" fill="white"/>
<path d="M53.6929 39.8929L52.1589 39.8902C52.0561 39.89 51.9725 39.9736 51.9723 40.0769L51.9696 41.6242C51.9695 41.7275 52.0527 41.8114 52.1556 41.8115L53.6896 41.8142C53.7924 41.8144 53.876 41.7308 53.8762 41.6276L53.8789 40.0802C53.879 39.977 53.7958 39.8931 53.6929 39.8929Z" fill="white"/>
<path d="M59.9677 39.894L58.4556 39.8967C58.3588 39.8968 58.2804 39.9758 58.2806 40.073L58.2833 41.6423C58.2835 41.7395 58.3621 41.8182 58.4589 41.818L59.971 41.8153C60.0678 41.8152 60.1462 41.7362 60.146 41.639L60.1433 40.0697C60.1431 39.9725 60.0645 39.8938 59.9677 39.894Z" fill="white"/>
<path d="M62.2184 39.9009L60.6626 39.89C60.5577 39.8893 60.4721 39.974 60.4713 40.0793L60.4606 41.6193C60.4599 41.7246 60.5443 41.8106 60.6492 41.8113L62.2051 41.8222C62.31 41.8229 62.3956 41.7382 62.3963 41.6329L62.407 40.0929C62.4078 39.9876 62.3233 39.9016 62.2184 39.9009Z" fill="white"/>
<path d="M71.0532 39.8852L69.5485 39.8984C69.4376 39.8994 69.3484 39.9904 69.3494 40.1018L69.3626 41.6197C69.3636 41.7311 69.4543 41.8206 69.5652 41.8196L71.0699 41.8065C71.1809 41.8055 71.27 41.7144 71.2691 41.603L71.2559 40.0851C71.2549 39.9737 71.1642 39.8842 71.0532 39.8852Z" fill="white"/>
<path d="M73.295 39.894L71.7683 39.8966C71.6654 39.8968 71.5822 39.9807 71.5824 40.084L71.585 41.6313C71.5852 41.7346 71.6688 41.8182 71.7716 41.818L73.2983 41.8153C73.4012 41.8151 73.4844 41.7313 73.4843 41.628L73.4816 40.0806C73.4814 39.9774 73.3979 39.8938 73.295 39.894Z" fill="white"/>
<path d="M75.5108 39.8927L73.9914 39.898C73.8845 39.8984 73.7982 39.9857 73.7985 40.093L73.8039 41.6257C73.8042 41.733 73.8912 41.8197 73.9981 41.8193L75.5175 41.814C75.6244 41.8136 75.7107 41.7263 75.7104 41.619L75.705 40.0863C75.7047 39.979 75.6177 39.8923 75.5108 39.8927Z" fill="white"/>
<path d="M77.739 39.889L76.1904 39.8944C76.0896 39.8947 76.0081 39.9771 76.0084 40.0784L76.0139 41.633C76.0142 41.7343 76.0963 41.8161 76.1971 41.8157L77.7457 41.8103C77.8465 41.8099 77.928 41.7276 77.9277 41.6263L77.9223 40.0716C77.9219 39.9704 77.8399 39.8886 77.739 39.889Z" fill="white"/>
<path d="M79.9502 39.8903L78.4016 39.893C78.3028 39.8932 78.2228 39.9737 78.223 40.073L78.2257 41.6276C78.2258 41.7269 78.3061 41.8072 78.4049 41.807L79.9535 41.8043C80.0524 41.8041 80.1324 41.7235 80.1322 41.6243L80.1295 40.0696C80.1293 39.9704 80.0491 39.8901 79.9502 39.8903Z" fill="#14E691"/>
<path d="M32 43.9507V42.1614L33.7129 42.1467C33.8493 42.1467 33.9175 42.2152 33.9175 42.3521L33.9138 43.7674C33.9138 43.9214 33.8371 43.996 33.6837 43.9911L32 43.9507Z" fill="white"/>
<path d="M35.9655 42.1228L34.3804 42.1117C34.2917 42.1111 34.2192 42.1828 34.2186 42.2719L34.2076 43.8559C34.207 43.945 34.2784 44.0177 34.3672 44.0183L35.9522 44.0295C36.041 44.0301 36.1134 43.9583 36.1141 43.8692L36.1251 42.2853C36.1257 42.1962 36.0543 42.1235 35.9655 42.1228Z" fill="white"/>
<path d="M49.2586 42.1188L47.71 42.116C47.6091 42.1159 47.5272 42.1978 47.527 42.2991L47.5243 43.8391C47.5242 43.9403 47.6058 44.0225 47.7066 44.0227L49.2552 44.0254C49.3561 44.0256 49.438 43.9437 49.4382 43.8424L49.4409 42.3024C49.441 42.2012 49.3594 42.1189 49.2586 42.1188Z" fill="white"/>
<path d="M51.4571 42.1176L49.9304 42.1096C49.8275 42.1091 49.7437 42.1924 49.7432 42.2956L49.7351 43.8356C49.7346 43.9389 49.8176 44.0231 49.9204 44.0236L51.4471 44.0316C51.55 44.0322 51.6338 43.9489 51.6343 43.8456L51.6424 42.3056C51.6429 42.2023 51.5599 42.1182 51.4571 42.1176Z" fill="white"/>
<path d="M53.7219 42.1188L52.1368 42.116C52.0521 42.1158 51.9833 42.1847 51.9831 42.2697L51.9804 43.8684C51.9802 43.9534 52.0488 44.0225 52.1335 44.0227L53.7186 44.0254C53.8033 44.0256 53.8721 43.9568 53.8723 43.8717L53.875 42.273C53.8752 42.188 53.8066 42.1189 53.7219 42.1188Z" fill="white"/>
<path d="M59.9881 42.1138H58.4468C58.3581 42.1138 58.2861 42.186 58.2861 42.2751V43.8591C58.2861 43.9482 58.3581 44.0204 58.4468 44.0204H59.9881C60.0769 44.0204 60.1488 43.9482 60.1488 43.8591V42.2751C60.1488 42.186 60.0769 42.1138 59.9881 42.1138Z" fill="white"/>
<path d="M62.2482 42.1193L60.6412 42.1081C60.5524 42.1074 60.48 42.1792 60.4793 42.2683L60.4683 43.8522C60.4677 43.9413 60.5392 44.0141 60.6279 44.0147L62.2349 44.0259C62.3237 44.0266 62.3961 43.9548 62.3967 43.8657L62.4077 42.2818C62.4084 42.1927 62.3369 42.1199 62.2482 42.1193Z" fill="white"/>
<path d="M71.1083 42.1148L69.5306 42.0982C69.4398 42.0972 69.3654 42.1703 69.3645 42.2614L69.348 43.8453C69.347 43.9365 69.4198 44.0111 69.5106 44.0121L71.0883 44.0286C71.1791 44.0296 71.2534 43.9565 71.2544 43.8654L71.2709 42.2815C71.2719 42.1903 71.199 42.1157 71.1083 42.1148Z" fill="white"/>
<path d="M73.2989 42.1086L71.7722 42.1112C71.6693 42.1114 71.5861 42.1953 71.5863 42.2986L71.5889 43.8312C71.5891 43.9345 71.6726 44.0181 71.7755 44.0179L73.3022 44.0152C73.4051 44.0151 73.4883 43.9312 73.4881 43.8279L73.4855 42.2952C73.4853 42.192 73.4018 42.1084 73.2989 42.1086Z" fill="white"/>
<path d="M75.5096 42.1189L74.0121 42.1084C73.8992 42.1076 73.807 42.1989 73.8062 42.3123L73.7958 43.8082C73.795 43.9216 73.8859 44.0142 73.9989 44.015L75.4963 44.0255C75.6093 44.0263 75.7015 43.935 75.7023 43.8216L75.7127 42.3256C75.7135 42.2122 75.6225 42.1197 75.5096 42.1189Z" fill="white"/>
<path d="M77.6945 42.1101H76.2408C76.1138 42.1101 76.0107 42.2135 76.0107 42.3411V43.7931C76.0107 43.9207 76.1138 44.0241 76.2408 44.0241H77.6945C77.8216 44.0241 77.9246 43.9207 77.9246 43.7931V42.3411C77.9246 42.2135 77.8216 42.1101 77.6945 42.1101Z" fill="white"/>
<path d="M79.9669 42.1117L78.3673 42.1229C78.2825 42.1235 78.2143 42.193 78.2149 42.278L78.2261 43.8766C78.2266 43.9617 78.2958 44.0302 78.3805 44.0296L79.9802 44.0184C80.0649 44.0178 80.1331 43.9483 80.1325 43.8633L80.1214 42.2647C80.1208 42.1796 80.0517 42.1111 79.9669 42.1117Z" fill="white"/>
<path d="M32 46.1983V44.3723L33.7166 44.3577C33.8505 44.3577 33.9175 44.4249 33.9175 44.5593L33.9138 45.971C33.9138 46.1299 33.8347 46.2093 33.6764 46.2093L32 46.1983Z" fill="white"/>
<path d="M35.9373 44.3493L34.4106 44.3439C34.3057 44.3436 34.2204 44.4286 34.22 44.5339L34.2147 46.0593C34.2144 46.1646 34.2991 46.2502 34.404 46.2506L35.9307 46.2559C36.0356 46.2563 36.1209 46.1712 36.1212 46.0659L36.1266 44.5406C36.1269 44.4353 36.0422 44.3496 35.9373 44.3493Z" fill="white"/>
<path d="M38.172 44.3336L36.6162 44.3527C36.5235 44.3538 36.4492 44.4302 36.4503 44.5234L36.4695 46.0999C36.4706 46.1931 36.5467 46.2677 36.6395 46.2665L38.1953 46.2474C38.2881 46.2463 38.3624 46.1699 38.3613 46.0767L38.3421 44.5002C38.3409 44.407 38.2648 44.3325 38.172 44.3336Z" fill="white"/>
<path d="M40.3604 44.3368L38.8703 44.342C38.7553 44.3424 38.6624 44.4363 38.6628 44.5518L38.6681 46.0551C38.6685 46.1705 38.762 46.2638 38.877 46.2634L40.3671 46.2581C40.4821 46.2577 40.575 46.1638 40.5746 46.0484L40.5693 44.5451C40.5689 44.4297 40.4754 44.3364 40.3604 44.3368Z" fill="white"/>
<path d="M42.5772 44.3368L41.0725 44.3421C40.9656 44.3425 40.8792 44.4298 40.8796 44.5371L40.8849 46.0698C40.8853 46.1771 40.9723 46.2638 41.0792 46.2634L42.5839 46.2581C42.6908 46.2578 42.7772 46.1705 42.7768 46.0631L42.7715 44.5305C42.7711 44.4231 42.6841 44.3364 42.5772 44.3368Z" fill="white"/>
<path d="M44.7877 44.3414L43.3122 44.3518C43.1932 44.3526 43.0974 44.4501 43.0982 44.5696L43.1085 46.0509C43.1093 46.1704 43.2065 46.2665 43.3255 46.2657L44.801 46.2554C44.92 46.2545 45.0158 46.157 45.015 46.0375L45.0047 44.5562C45.0038 44.4368 44.9067 44.3406 44.7877 44.3414Z" fill="white"/>
<path d="M47.0301 44.3404L45.5107 44.3457C45.4018 44.3461 45.3138 44.4351 45.3142 44.5444L45.3194 46.0624C45.3198 46.1718 45.4084 46.2601 45.5174 46.2597L47.0367 46.2544C47.1456 46.254 47.2336 46.1651 47.2333 46.0557L47.228 44.5377C47.2276 44.4284 47.139 44.34 47.0301 44.3404Z" fill="white"/>
<path d="M49.2417 44.3391L47.7224 44.3471C47.6114 44.3477 47.522 44.4384 47.5225 44.5498L47.5303 46.0458C47.5309 46.1572 47.6213 46.247 47.7323 46.2464L49.2516 46.2384C49.3626 46.2378 49.452 46.1471 49.4514 46.0357L49.4436 44.5397C49.4431 44.4283 49.3527 44.3385 49.2417 44.3391Z" fill="white"/>
<path d="M51.4982 44.348L49.8912 44.3452C49.8105 44.3451 49.745 44.4106 49.7449 44.4916L49.7421 46.0976C49.7419 46.1786 49.8072 46.2444 49.8879 46.2446L51.4949 46.2474C51.5756 46.2475 51.6411 46.182 51.6413 46.101L51.6441 44.495C51.6442 44.414 51.5789 44.3482 51.4982 44.348Z" fill="white"/>
<path d="M59.9845 44.3467H58.4505C58.3597 44.3467 58.2861 44.4206 58.2861 44.5117V46.0883C58.2861 46.1795 58.3597 46.2533 58.4505 46.2533H59.9845C60.0752 46.2533 60.1488 46.1795 60.1488 46.0883V44.5117C60.1488 44.4206 60.0752 44.3467 59.9845 44.3467Z" fill="white"/>
<path d="M62.2229 44.3503H60.645C60.5482 44.3503 60.4697 44.4291 60.4697 44.5263V46.0737C60.4697 46.1709 60.5482 46.2497 60.645 46.2497H62.2229C62.3197 46.2497 62.3982 46.1709 62.3982 46.0737V44.5263C62.3982 44.4291 62.3197 44.3503 62.2229 44.3503Z" fill="white"/>
<path d="M77.6891 44.3406L76.2501 44.3381C76.119 44.3378 76.0125 44.4444 76.0123 44.576L76.0098 46.0206C76.0095 46.1523 76.1156 46.2592 76.2468 46.2594L77.6858 46.2619C77.8169 46.2621 77.9234 46.1556 77.9236 46.024L77.9261 44.5793C77.9263 44.4477 77.8202 44.3408 77.6891 44.3406Z" fill="white"/>
<path d="M79.9495 44.3506L78.4082 44.3425C78.3073 44.342 78.2252 44.4236 78.2246 44.5249L78.2166 46.0722C78.216 46.1734 78.2974 46.256 78.3982 46.2565L79.9395 46.2646C80.0403 46.2651 80.1225 46.1835 80.1231 46.0822L80.1311 44.5349C80.1317 44.4337 80.0503 44.3511 79.9495 44.3506Z" fill="white"/>
<path d="M32 46.5869L33.7385 46.5942C33.8578 46.5942 33.9175 46.6541 33.9175 46.7739L33.9138 48.2442C33.9138 48.3811 33.8457 48.4484 33.7093 48.4459L32 48.4166V46.5869Z" fill="white"/>
<path d="M35.9436 46.5778L34.4023 46.567C34.3015 46.5662 34.2192 46.6478 34.2185 46.749L34.2077 48.289C34.207 48.3902 34.2882 48.4729 34.3891 48.4736L35.9303 48.4844C36.0312 48.4851 36.1135 48.4036 36.1142 48.3023L36.1249 46.7624C36.1256 46.6611 36.0444 46.5785 35.9436 46.5778Z" fill="white"/>
<path d="M38.2079 46.5845L36.6229 46.5678C36.5361 46.5669 36.4651 46.6367 36.4642 46.7238L36.4477 48.3077C36.4467 48.3948 36.5163 48.4661 36.6031 48.467L38.1881 48.4837C38.2748 48.4846 38.3459 48.4148 38.3468 48.3277L38.3633 46.7438C38.3642 46.6567 38.2946 46.5854 38.2079 46.5845Z" fill="white"/>
<path d="M40.3875 46.5736L38.8608 46.5709C38.7559 46.5707 38.6708 46.6559 38.6706 46.7612L38.6679 48.2792C38.6677 48.3845 38.7526 48.47 38.8575 48.4702L40.3842 48.4729C40.4891 48.4731 40.5743 48.3879 40.5744 48.2826L40.5771 46.7646C40.5773 46.6593 40.4924 46.5737 40.3875 46.5736Z" fill="white"/>
<path d="M42.5828 46.571L41.0781 46.5736C40.9692 46.5738 40.881 46.6626 40.8812 46.772L40.8838 48.2753C40.884 48.3847 40.9725 48.4732 41.0814 48.473L42.5862 48.4703C42.6951 48.4701 42.7832 48.3813 42.783 48.272L42.7804 46.7686C42.7802 46.6593 42.6918 46.5708 42.5828 46.571Z" fill="white"/>
<path d="M44.8143 46.571L43.2949 46.5736C43.186 46.5738 43.0978 46.6626 43.098 46.772L43.1006 48.2753C43.1008 48.3847 43.1893 48.4732 43.2982 48.473L44.8176 48.4703C44.9265 48.4701 45.0146 48.3813 45.0144 48.272L45.0118 46.7686C45.0116 46.6593 44.9232 46.5708 44.8143 46.571Z" fill="white"/>
<path d="M47.0296 46.5796H45.5248C45.4119 46.5796 45.3203 46.6715 45.3203 46.7849V48.2736C45.3203 48.387 45.4119 48.4789 45.5248 48.4789H47.0296C47.1426 48.4789 47.2341 48.387 47.2341 48.2736V46.7849C47.2341 46.6715 47.1426 46.5796 47.0296 46.5796Z" fill="#E619DC"/>
<path d="M60.0178 46.5703L58.3962 46.5817C58.3316 46.5822 58.2797 46.6351 58.2801 46.6998L58.2917 48.3645C58.2921 48.4293 58.3448 48.4814 58.4094 48.481L60.031 48.4696C60.0955 48.4692 60.1475 48.4163 60.147 48.3515L60.1355 46.6868C60.135 46.622 60.0823 46.5699 60.0178 46.5703Z" fill="white"/>
<path d="M62.2194 46.5769L60.6416 46.5824C60.5489 46.5827 60.4739 46.6585 60.4742 46.7517L60.4796 48.3063C60.4799 48.3995 60.5554 48.4747 60.6482 48.4744L62.226 48.4689C62.3188 48.4686 62.3938 48.3928 62.3934 48.2996L62.388 46.745C62.3877 46.6518 62.3122 46.5766 62.2194 46.5769Z" fill="white"/>
<path d="M64.4708 46.581L62.82 46.5781C62.7473 46.578 62.6884 46.637 62.6882 46.7099L62.6854 48.3452C62.6853 48.4181 62.744 48.4773 62.8167 48.4774L64.4675 48.4803C64.5401 48.4805 64.5991 48.4215 64.5992 48.3486L64.6021 46.7132C64.6022 46.6403 64.5434 46.5811 64.4708 46.581Z" fill="white"/>
<path d="M75.5264 46.5775L73.9851 46.5748C73.8903 46.5746 73.8133 46.6516 73.8132 46.7468L73.8104 48.3161C73.8103 48.4113 73.887 48.4886 73.9818 48.4888L75.5231 48.4915C75.6179 48.4916 75.6949 48.4146 75.6951 48.3194L75.6978 46.7501C75.6979 46.6549 75.6212 46.5776 75.5264 46.5775Z" fill="white"/>
<path d="M77.7115 46.5721L76.214 46.58C76.0991 46.5806 76.0063 46.6746 76.0069 46.7901L76.0148 48.286C76.0154 48.4015 76.109 48.4945 76.224 48.4939L77.7215 48.4861C77.8364 48.4855 77.9292 48.3914 77.9286 48.276L77.9208 46.78C77.9201 46.6646 77.8265 46.5715 77.7115 46.5721Z" fill="white"/>
<path d="M79.9407 46.5796H78.4214C78.3165 46.5796 78.2314 46.665 78.2314 46.7703V48.2883C78.2314 48.3936 78.3165 48.4789 78.4214 48.4789H79.9407C80.0456 48.4789 80.1307 48.3936 80.1307 48.2883V46.7703C80.1307 46.665 80.0456 46.5796 79.9407 46.5796Z" fill="#FF1928"/>
<path d="M87.3619 50.6863L85.4846 50.657C85.3823 50.6545 85.3251 50.6032 85.3129 50.503L85.2654 50.0996C85.2614 50.0671 85.2509 50.0358 85.2345 50.0076C85.2181 49.9794 85.1963 49.9549 85.1702 49.9356C85.1442 49.9164 85.1145 49.9027 85.0832 49.8956C85.0518 49.8885 85.0193 49.8881 84.9878 49.8943L84.7906 49.931C84.6153 49.9627 84.5289 49.8906 84.5313 49.7146L84.5386 47.9583C84.5386 47.8043 84.6153 47.72 84.7687 47.7053C85.0925 47.6711 85.2618 47.4926 85.2764 47.17C85.2837 47.0233 85.3604 46.95 85.5065 46.95H88.8118C88.849 46.9497 88.8858 46.9574 88.9197 46.9726C88.9537 46.9878 88.9841 47.0102 89.0089 47.0383C89.0338 47.0663 89.0525 47.0994 89.0639 47.1354C89.0752 47.1714 89.0789 47.2094 89.0748 47.247L88.9762 48.1966C88.9699 48.2552 88.9425 48.3094 88.8993 48.3487C88.8562 48.388 88.8003 48.4095 88.7425 48.4093L86.2406 48.4276C86.1543 48.4262 86.0708 48.4579 86.0069 48.5161C85.943 48.5743 85.9036 48.6547 85.8966 48.741C85.8897 48.8273 85.9157 48.9131 85.9694 48.9809C86.0231 49.0486 86.1005 49.0934 86.1858 49.106C86.6338 49.1817 87.0904 49.2001 87.5554 49.161C87.7381 49.1463 87.9218 49.1698 88.095 49.23C88.2682 49.2902 88.4272 49.3858 88.562 49.5108C88.6967 49.6358 88.8044 49.7874 88.8782 49.9563C88.952 50.1251 88.9903 50.3075 88.9908 50.492V51.9843C88.9908 52.1114 88.9275 52.1737 88.8009 52.1713L88.4393 52.1676C88.4153 52.1671 88.3915 52.1714 88.3691 52.1802C88.3468 52.1889 88.3264 52.202 88.3091 52.2187C88.2918 52.2354 88.2779 52.2553 88.2683 52.2774C88.2587 52.2995 88.2535 52.3232 88.253 52.3473L88.2457 52.7286C88.2433 52.8508 88.1812 52.912 88.0595 52.912H84.703C84.6806 52.912 84.6584 52.9076 84.6378 52.899C84.6172 52.8905 84.5985 52.878 84.5829 52.8623C84.5672 52.8466 84.5549 52.828 84.5467 52.8075C84.5385 52.7871 84.5345 52.7653 84.535 52.7433L84.5459 51.603C84.5459 51.4954 84.5995 51.4416 84.7066 51.4416H87.2815C87.43 51.4416 87.5128 51.3671 87.5299 51.218L87.5664 50.921C87.5834 50.767 87.5153 50.6887 87.3619 50.6863Z" fill="white"/>
<path d="M90.3024 52.1749L89.981 52.1639C89.8422 52.159 89.774 52.0869 89.7765 51.9475C89.7911 50.8769 89.477 47.9142 90.3536 47.2689C90.9891 46.7959 92.3769 46.9022 93.1074 47.0049C93.4066 47.0464 93.6808 47.1951 93.8794 47.4235C94.0781 47.6519 94.1878 47.9447 94.1885 48.2479L94.2031 51.8155C94.2056 51.9671 94.1349 52.0685 93.9913 52.1199C93.7259 52.2152 93.5652 52.4095 93.5092 52.7029C93.4981 52.7598 93.4676 52.8111 93.423 52.8479C93.3783 52.8847 93.3223 52.9048 93.2645 52.9045L90.7151 52.9119C90.591 52.9119 90.5289 52.8508 90.5289 52.7285L90.5252 52.4059C90.5252 52.3459 90.502 52.2882 90.4604 52.2451C90.4188 52.202 90.3622 52.1768 90.3024 52.1749ZM92.7951 48.8872C92.7953 48.8217 92.7825 48.7569 92.7577 48.6963C92.7328 48.6358 92.6963 48.5807 92.6503 48.5344C92.6042 48.488 92.5495 48.4511 92.4893 48.426C92.4291 48.4008 92.3645 48.3878 92.2993 48.3877L91.766 48.3867C91.7008 48.3866 91.6362 48.3994 91.5759 48.4244C91.5156 48.4493 91.4607 48.486 91.4145 48.5322C91.3683 48.5784 91.3317 48.6333 91.3066 48.6938C91.2815 48.7543 91.2686 48.8191 91.2685 48.8846L91.2648 50.9745C91.2647 51.04 91.2774 51.1049 91.3023 51.1654C91.3271 51.226 91.3636 51.281 91.4097 51.3274C91.4557 51.3738 91.5104 51.4106 91.5707 51.4358C91.6309 51.461 91.6955 51.474 91.7607 51.4741L92.2939 51.475C92.3592 51.4751 92.4238 51.4623 92.4841 51.4374C92.5444 51.4124 92.5992 51.3758 92.6454 51.3296C92.6916 51.2833 92.7283 51.2284 92.7534 51.168C92.7784 51.1075 92.7914 51.0427 92.7915 50.9772L92.7951 48.8872Z" fill="white"/>
<path d="M96.4641 50.8733L96.4787 52.6736C96.4787 52.8325 96.3996 52.912 96.2413 52.912H95.2442C95.1006 52.912 95.0275 52.8386 95.0251 52.692L95.0068 47.1773C95.0068 47.0233 95.0823 46.9463 95.2333 46.9463H99.2947C99.4189 46.9463 99.481 47.0086 99.481 47.1333L99.4773 48.182C99.4773 48.3286 99.403 48.4032 99.2545 48.4056L96.6467 48.4423C96.5504 48.4413 96.4579 48.4788 96.3898 48.5466C96.3216 48.6143 96.2833 48.7067 96.2833 48.8035C96.2833 48.9002 96.3216 48.9934 96.3898 49.0625C96.4579 49.1316 96.5504 49.171 96.6467 49.172L98.5423 49.205C98.6738 49.2074 98.7395 49.2734 98.7395 49.403V50.459C98.742 50.5958 98.675 50.6643 98.5387 50.6643L96.665 50.6716C96.5311 50.6716 96.4641 50.7388 96.4641 50.8733Z" fill="white"/>
<path d="M101.628 48.4166H100.361C100.328 48.4166 100.296 48.4035 100.273 48.3801C100.249 48.3567 100.236 48.325 100.236 48.292L100.255 47.071C100.255 47.0379 100.268 47.0062 100.291 46.9828C100.314 46.9594 100.346 46.9463 100.379 46.9463H104.572C104.605 46.9463 104.636 46.9594 104.659 46.9828C104.683 47.0062 104.696 47.0379 104.696 47.071L104.703 48.292C104.703 48.325 104.69 48.3567 104.667 48.3801C104.643 48.4035 104.612 48.4166 104.579 48.4166H103.344C103.328 48.4166 103.312 48.4198 103.297 48.4261C103.282 48.4324 103.268 48.4416 103.257 48.4531C103.245 48.4647 103.236 48.4785 103.23 48.4936C103.224 48.5087 103.22 48.5249 103.22 48.5413V52.7873C103.22 52.8204 103.207 52.8521 103.184 52.8754C103.161 52.8988 103.129 52.912 103.096 52.912H101.876C101.843 52.912 101.812 52.8988 101.788 52.8754C101.765 52.8521 101.752 52.8204 101.752 52.7873V48.5413C101.752 48.5249 101.749 48.5087 101.743 48.4936C101.736 48.4785 101.727 48.4647 101.716 48.4531C101.704 48.4416 101.69 48.4324 101.675 48.4261C101.66 48.4198 101.644 48.4166 101.628 48.4166Z" fill="white"/>
<path d="M32 48.7908L33.7349 48.7981C33.8542 48.7981 33.9138 48.8568 33.9138 48.9741L33.9175 50.4444C33.9175 50.6033 33.8383 50.6803 33.6801 50.6754L32 50.6278V48.7908Z" fill="white"/>
<path d="M35.9699 48.7898L34.3702 48.7842C34.2855 48.7839 34.2166 48.8526 34.2163 48.9377L34.2107 50.5437C34.2104 50.6287 34.2788 50.6979 34.3635 50.6982L35.9633 50.7038C36.048 50.7041 36.1169 50.6354 36.1172 50.5504L36.1228 48.9444C36.1231 48.8593 36.0546 48.7901 35.9699 48.7898Z" fill="white"/>
<path d="M62.2158 48.7934L60.6672 48.788C60.5684 48.7876 60.488 48.8678 60.4877 48.967L60.4823 50.5217C60.4819 50.6209 60.5618 50.7016 60.6606 50.702L62.2092 50.7074C62.308 50.7077 62.3884 50.6276 62.3888 50.5284L62.3942 48.9737C62.3945 48.8745 62.3147 48.7938 62.2158 48.7934Z" fill="#1987E6"/>
<path d="M64.4143 48.7834H62.8877C62.7787 48.7834 62.6904 48.8721 62.6904 48.9814V50.5068C62.6904 50.6161 62.7787 50.7048 62.8877 50.7048H64.4143C64.5233 50.7048 64.6116 50.6161 64.6116 50.5068V48.9814C64.6116 48.8721 64.5233 48.7834 64.4143 48.7834Z" fill="white"/>
<path d="M66.6609 48.7834H65.105C65.0082 48.7834 64.9297 48.8622 64.9297 48.9594V50.5288C64.9297 50.626 65.0082 50.7048 65.105 50.7048H66.6609C66.7577 50.7048 66.8362 50.626 66.8362 50.5288V48.9594C66.8362 48.8622 66.7577 48.7834 66.6609 48.7834Z" fill="white"/>
<path d="M68.8692 48.7819L67.3279 48.7846C67.225 48.7848 67.1417 48.8686 67.1419 48.9719L67.1446 50.5192C67.1448 50.6225 67.2283 50.7061 67.3312 50.7059L68.8725 50.7032C68.9754 50.703 69.0586 50.6192 69.0584 50.5159L69.0558 48.9686C69.0556 48.8653 68.972 48.7817 68.8692 48.7819Z" fill="white"/>
<path d="M71.0604 48.7757L69.5556 48.7836C69.4467 48.7842 69.3589 48.8733 69.3594 48.9827L69.3674 50.5153C69.368 50.6247 69.4568 50.7128 69.5657 50.7123L71.0704 50.7044C71.1793 50.7038 71.2672 50.6147 71.2666 50.5053L71.2586 48.9727C71.2581 48.8633 71.1693 48.7751 71.0604 48.7757Z" fill="white"/>
<path d="M73.275 48.7807L71.7849 48.7859C71.6739 48.7863 71.5843 48.8769 71.5847 48.9883L71.59 50.5063C71.5904 50.6177 71.6806 50.7076 71.7915 50.7072L73.2817 50.702C73.3926 50.7016 73.4823 50.611 73.4819 50.4996L73.4766 48.9817C73.4762 48.8703 73.386 48.7803 73.275 48.7807Z" fill="white"/>
<path d="M75.4704 48.7834H74.046C73.9149 48.7834 73.8086 48.8902 73.8086 49.0218V50.4664C73.8086 50.5981 73.9149 50.7048 74.046 50.7048H75.4704C75.6015 50.7048 75.7078 50.5981 75.7078 50.4664V49.0218C75.7078 48.8902 75.6015 48.7834 75.4704 48.7834Z" fill="white"/>
<path d="M77.7297 48.7912L76.2323 48.7754C76.1153 48.7742 76.0195 48.8684 76.0183 48.9858L76.0027 50.4818C76.0015 50.5992 76.0953 50.6954 76.2123 50.6966L77.7097 50.7124C77.8267 50.7136 77.9225 50.6194 77.9237 50.502L77.9393 49.006C77.9405 48.8886 77.8467 48.7924 77.7297 48.7912Z" fill="white"/>
<path d="M32 52.89V51.042L33.7056 51.0347C33.8469 51.0347 33.9163 51.1043 33.9138 51.2437V52.7177C33.9138 52.8399 33.853 52.901 33.7312 52.901L32 52.89Z" fill="white"/>
<path d="M35.9745 51.0209L34.3602 51.0266C34.2815 51.0269 34.218 51.0911 34.2183 51.1701L34.2239 52.7761C34.2241 52.8551 34.2881 52.9189 34.3668 52.9186L35.9811 52.9129C36.0598 52.9127 36.1233 52.8484 36.1231 52.7694L36.1175 51.1634C36.1172 51.0845 36.0532 51.0207 35.9745 51.0209Z" fill="#18BEE6"/>
<path d="M64.448 51.0027L62.8555 51.0083C62.7708 51.0085 62.7024 51.0777 62.7027 51.1628L62.7082 52.7614C62.7085 52.8465 62.7775 52.9152 62.8622 52.9149L64.4546 52.9093C64.5393 52.909 64.6077 52.8398 64.6074 52.7548L64.6019 51.1561C64.6016 51.0711 64.5327 51.0024 64.448 51.0027Z" fill="white"/>
<path d="M66.6614 51.0027L65.0909 51.0082C64.9981 51.0085 64.9231 51.0843 64.9234 51.1775L64.9289 52.7468C64.9292 52.8399 65.0047 52.9152 65.0975 52.9149L66.668 52.9094C66.7608 52.909 66.8357 52.8332 66.8354 52.7401L66.8299 51.1708C66.8296 51.0776 66.7541 51.0024 66.6614 51.0027Z" fill="white"/>
<path d="M68.8365 50.9977L67.361 51.0055C67.242 51.0061 67.146 51.1034 67.1466 51.2229L67.1544 52.7042C67.155 52.8237 67.252 52.9201 67.371 52.9194L68.8465 52.9117C68.9655 52.9111 69.0615 52.8137 69.0609 52.6942L69.0531 51.2129C69.0525 51.0934 68.9555 50.9971 68.8365 50.9977Z" fill="white"/>
<path d="M71.0397 51.0042L69.5934 50.9991C69.4663 50.9987 69.3629 51.1017 69.3625 51.2293L69.3574 52.6813C69.357 52.8089 69.4596 52.9126 69.5867 52.9131L71.033 52.9182C71.1601 52.9186 71.2635 52.8155 71.2639 52.688L71.269 51.236C71.2694 51.1084 71.1668 51.0046 71.0397 51.0042Z" fill="white"/>
<path d="M73.2767 51.0041L71.7939 51.0067C71.6769 51.0069 71.5822 51.1023 71.5824 51.2197L71.585 52.7011C71.5852 52.8185 71.6802 52.9136 71.7972 52.9134L73.28 52.9108C73.397 52.9106 73.4917 52.8152 73.4915 52.6977L73.4889 51.2164C73.4887 51.099 73.3937 51.0039 73.2767 51.0041Z" fill="white"/>
<path d="M75.513 51.0143L74.0229 51.0039C73.9099 51.0031 73.8177 51.0944 73.8169 51.2078L73.8065 52.7037C73.8057 52.8171 73.8967 52.9097 74.0096 52.9105L75.4997 52.9209C75.6127 52.9217 75.7049 52.8304 75.7057 52.717L75.7161 51.2211C75.7169 51.1077 75.626 51.0151 75.513 51.0143Z" fill="#FF4B00"/>
</g>
<defs>
<clipPath id="clip0_75_23785">
<rect width="93.5" height="22" fill="white" transform="translate(32 31)"/>
</clipPath>
</defs>
</svg>
