<svg width="151" height="84" viewBox="0 0 151 84" fill="none" xmlns="http://www.w3.org/2000/svg">
<g clip-path="url(#clip0_75_23982)">
<path d="M30 42.2281C30.0912 42.3193 30.1824 42.3193 30.1824 42.3193C30.6384 42.5929 31.0945 42.7753 31.5505 43.049C31.7329 43.1402 31.7329 43.049 31.7329 42.8656C31.7329 41.4985 31.8241 40.0392 31.8241 38.6711C31.8241 38.5799 31.8241 38.4887 31.9153 38.3975C32.4635 37.4854 33.0098 36.5734 33.4658 35.6613C33.9218 34.7493 34.5603 34.0196 35.2899 33.29C36.2932 32.2867 37.2964 31.2835 38.2997 30.2802C38.5733 30.189 38.5733 30.189 38.6645 30.3714C38.8469 31.0099 39.0284 31.5571 39.2117 32.1955C39.3029 32.4692 39.3029 32.4692 39.5765 32.2867C39.8502 32.1043 39.9414 31.9219 39.9414 31.5571C40.2159 30.3714 40.4895 29.277 40.8534 28.0913C40.9446 27.9089 41.0358 28.0001 41.127 28.0001C41.4919 28.1825 41.7655 28.4561 42.1303 28.6385C43.1336 29.277 44.1368 29.8242 45.2313 30.3714C45.9609 30.7363 46.5993 31.2835 47.1466 31.9219C47.8762 32.7428 48.6971 33.5636 49.5179 34.3845C49.61 34.4757 49.7003 34.4757 49.8827 34.4757C50.5212 34.2021 51.2508 34.0196 51.8892 33.746C51.9805 33.746 52.0717 33.8372 52.1629 33.8372C52.4365 34.4757 52.7101 35.1141 53.0749 35.7525C53.5309 36.7558 53.987 37.7591 54.5342 38.7623C54.899 39.5832 55.355 40.404 55.7208 41.1336C55.7208 41.1336 55.7208 41.2249 55.7208 41.3161C55.6287 41.9545 55.4463 42.5929 55.355 43.2314C55.1726 44.1434 55.0814 45.0555 54.899 45.9675C54.8078 46.3323 54.8078 46.606 54.7166 46.9708C54.7166 47.1532 54.8078 47.1532 54.899 47.1532C55.355 47.0611 55.9023 46.9699 56.3583 46.7884C56.4504 46.7884 56.4504 46.7884 56.5407 46.6972C56.5407 46.7884 56.4495 46.8787 56.4495 46.8787C56.0847 47.1532 55.9935 47.5171 55.9014 47.8819C55.3541 49.25 54.8078 50.6181 54.2597 51.9862C53.987 52.6255 53.5309 52.8079 52.9837 53.0815C51.8893 53.4464 50.886 53.8103 49.7915 54.2663C48.6971 54.6311 47.6026 55.0871 46.5072 55.4529C46.0512 55.6344 45.6873 55.8177 45.2313 55.9089C45.1392 55.9089 45.0489 56.0001 44.9567 55.9089C44.4095 55.9089 43.8632 55.8177 43.315 55.7265C42.3118 55.6344 41.3997 55.6344 40.3965 55.6344C39.5765 55.5441 38.7557 55.3617 38.0261 54.9968C37.57 54.8144 37.114 54.632 36.658 54.5408C35.8371 54.2663 34.9251 53.9024 34.1042 53.6288C34.0121 53.6288 33.9218 53.5376 33.9218 53.4463C33.2834 52.3519 32.5537 51.2583 31.9153 50.1621C31.4593 49.3421 31.0954 48.4301 31.0033 47.4259C30.9121 46.6972 30.7296 45.9675 30.6384 45.2379C30.5472 44.5994 30.456 43.961 30.2736 43.3217C30.1824 42.9578 30.0912 42.6841 30 42.3193C30 42.4105 30 42.3193 30 42.2281ZM43.0423 38.8535C40.671 38.8535 38.1173 38.8535 35.5635 38.8535C35.3811 38.8535 35.2899 38.9447 35.2899 39.1271C35.2899 40.7688 35.3811 42.4105 35.3811 43.961C35.3811 44.1434 35.4723 44.2337 35.6547 44.2337C37.2052 44.1434 38.8469 44.1434 40.3974 44.0522C40.6719 44.0522 40.6719 44.0522 40.6719 44.3258C40.6719 44.7819 40.6719 45.33 40.7631 45.786C40.8543 46.6981 40.9455 47.518 41.0367 48.4301C41.0367 49.7981 41.0367 51.1662 41.0367 52.5343C41.0367 52.8079 41.0367 52.8982 41.4016 52.8982C42.3136 52.8982 43.1335 52.8982 44.0456 52.8982C44.4104 52.8982 44.7762 52.8982 45.0498 52.9903C45.3234 52.9903 45.4137 52.9903 45.4137 52.7167C45.5049 51.8959 45.6873 51.1662 45.6873 50.3454C45.7785 49.4333 45.7785 48.6125 45.7785 47.7004C45.7785 46.606 45.7785 45.4203 45.7785 44.3258C45.7785 44.2337 45.7785 44.1434 45.8697 44.1434C46.1442 44.0522 46.5081 43.8698 46.7818 43.8698C47.9683 43.8698 49.0619 43.8698 50.2485 43.7777C50.43 43.7777 50.6124 43.7777 50.7957 43.7777C50.979 43.7777 51.0693 43.6865 51.0693 43.4138C51.0693 41.8633 51.1614 40.3128 51.1614 38.8535C51.1614 38.6711 51.0693 38.5799 50.979 38.5799C50.8869 38.5799 50.7054 38.5799 50.6142 38.5799C48.1498 38.7623 45.6873 38.7623 43.0423 38.8535Z" fill="white"/>
<path d="M77.3355 47.7916C77.3355 49.3421 77.3355 50.8926 77.3355 52.4431C77.3355 52.6264 77.2443 52.7176 77.0619 52.7176C76.5147 52.7176 75.9674 52.7176 75.4202 52.7176C75.2378 52.7176 75.1466 52.6264 75.0554 52.4431C74.873 51.7134 74.5994 50.9838 74.4169 50.2542C74.3257 49.8893 74.2345 49.5245 74.1433 49.1597C74.0521 48.9782 73.9618 48.7949 73.6873 48.7949H73.5961C73.2313 48.7037 73.2313 48.7037 73.2313 49.0694C73.3234 50.163 73.5058 51.3495 73.5961 52.4431C73.5961 52.6255 73.5049 52.7167 73.4137 52.6255C72.8665 52.6255 72.228 52.5343 71.6808 52.5343C71.4984 52.5343 71.4984 52.4422 71.4984 52.2607C71.4984 51.4398 71.4984 50.6181 71.4984 49.706C71.4984 49.25 71.4063 48.8861 71.4063 48.4301C71.315 47.3356 71.3151 46.2421 71.3151 45.1458C71.3151 44.5082 71.3151 43.7777 71.3151 43.1402C71.3151 43.049 71.3151 42.8656 71.4975 42.8656C71.9535 42.7744 72.5007 42.6841 72.9567 42.5017C73.1392 42.5017 73.5049 42.6841 73.5049 42.8656C73.5961 43.3217 73.7785 43.7777 73.8688 44.2337C74.1424 45.0546 74.3248 45.7851 74.5984 46.606V46.6972C74.6906 47.1532 74.873 47.2444 75.329 47.062C75.4202 47.062 75.4202 46.8796 75.4202 46.8796C75.4202 46.1499 75.329 45.33 75.2378 44.5994C75.2378 44.3258 75.1466 44.0522 75.1466 43.7786C75.1466 43.4138 75.0554 43.049 75.0554 42.6841C75.0554 42.5017 75.1475 42.4105 75.2378 42.4105C75.7859 42.4105 76.4235 42.4105 76.9707 42.5017C77.1531 42.5938 77.2443 42.6841 77.2443 42.8656C77.3355 44.7819 77.3355 46.3323 77.3355 47.7916Z" fill="white"/>
<path d="M114.365 47.7004C114.365 46.1499 114.365 44.5994 114.365 42.9578C114.365 42.6841 114.365 42.6841 114.638 42.5938C115.277 42.5938 115.824 42.5017 116.463 42.5017C116.645 42.5017 116.736 42.5938 116.736 42.6841C116.736 43.5962 116.736 44.5082 116.645 45.4203C116.645 45.6939 116.553 45.8763 116.463 46.1499C116.371 46.3323 116.463 46.4236 116.645 46.4236C117.192 46.3323 117.648 45.9675 117.739 45.33C117.922 44.5082 117.922 43.7777 117.922 42.9578C117.922 42.6841 117.922 42.5938 118.287 42.5938C118.925 42.5938 119.564 42.5017 120.202 42.5017C120.384 42.5017 120.476 42.5938 120.567 42.7753C120.749 44.5082 120.293 46.1499 119.016 47.4268C118.743 47.7916 118.652 47.7916 119.016 48.0662C119.564 48.7949 120.111 49.5254 120.476 50.4375C120.658 50.9847 120.84 51.6232 120.84 52.1704C120.84 52.2616 120.749 52.3519 120.658 52.3519C120.202 52.4431 119.655 52.4431 119.199 52.4431C118.743 52.4431 118.651 52.3519 118.56 51.9871C118.287 51.2583 117.922 50.5278 117.648 49.7991C117.466 49.4333 117.192 49.4333 116.919 49.4333L116.827 49.6157C116.827 50.163 116.827 50.619 116.827 51.1662C116.827 51.5301 116.735 51.8959 116.645 52.2607C116.645 52.3519 116.463 52.4422 116.463 52.4422C115.915 52.4422 115.368 52.5343 114.821 52.5343C114.638 52.5343 114.547 52.4422 114.547 52.2607C114.456 50.8926 114.456 49.3421 114.365 47.7004Z" fill="white"/>
<path d="M63.4723 48.0652C63.4723 49.6148 63.4723 51.1653 63.4723 52.7167C63.4723 52.9903 63.4723 52.9903 63.1978 52.9903C62.6506 52.8982 62.1042 52.8079 61.5561 52.8079C61.3737 52.8079 61.2825 52.7167 61.2825 52.4431C61.2825 51.6232 61.2825 50.7111 61.1913 49.8903C61.1913 49.7981 61.0992 49.7069 61.0089 49.6157C60.9167 49.5245 60.7352 49.4342 60.644 49.2509C60.5528 49.1597 60.4616 49.1597 60.4616 49.343C60.3704 49.5254 60.2801 49.7069 60.188 49.9815C60.188 50.0727 60.188 50.2551 60.188 50.4375C60.2801 51.2583 60.3704 52.0792 60.4616 52.8991C60.4616 53.0824 60.3704 53.0824 60.2801 53.0824C59.6417 53.0824 59.0936 53.0824 58.456 53.0824C58.2736 53.0815 58.1824 52.9903 58.1824 52.8079C58.1824 51.1662 58.1824 49.4342 58.1824 47.7916C58.1824 46.6981 58.0009 45.6027 57.9088 44.5082C57.9088 43.961 57.9088 43.4138 57.9088 42.9577C57.9088 42.8656 58.0009 42.7753 58.0912 42.7753C58.7296 42.7753 59.3681 42.7753 59.9153 42.7753C60.0977 42.7753 60.0977 42.8665 60.0977 43.0499C60.0977 43.7786 60.1889 44.4179 60.1889 45.1467C60.1889 45.8772 60.1889 46.6069 60.1889 47.2453C60.1889 47.3365 60.281 47.4268 60.3713 47.4268C60.5537 47.4268 60.8274 47.5189 61.0098 47.5189C61.1922 47.5189 61.2834 47.5189 61.2834 47.2453C61.2834 45.9684 61.2834 44.6906 61.2834 43.5059C61.2834 43.2314 61.2834 43.2314 61.6482 43.2314C62.1954 43.2314 62.7418 43.2314 63.2899 43.2314C63.5635 43.2314 63.5635 43.3226 63.5635 43.5059C63.4723 44.9643 63.4723 46.5138 63.4723 48.0652Z" fill="white"/>
<path d="M99.4984 49.5245C99.4984 49.8893 99.4063 50.2542 99.4063 50.6181C99.4063 51.1662 99.4063 51.8047 99.4063 52.351C99.4063 52.5334 99.3151 52.5334 99.2239 52.6255C98.7678 52.7167 98.2206 52.8982 97.7646 52.9894C97.5822 52.9894 97.491 52.9894 97.491 52.807C97.4007 51.7134 97.3094 50.7102 97.2182 49.6157C97.127 47.6092 97.127 45.6939 97.127 43.6874C97.127 43.5059 97.127 43.4138 97.127 43.2314C97.127 42.8665 97.127 42.8665 97.4919 42.8665C98.1303 42.8665 98.6775 42.8665 99.316 42.8665C99.4984 42.8665 99.4984 42.9587 99.4984 43.0499C99.4984 43.7786 99.4063 44.5092 99.4063 45.33C99.4063 45.6939 99.4063 46.0587 99.3151 46.4235C99.3151 46.606 99.4063 46.606 99.4975 46.606C100.045 46.606 100.135 46.5138 100.317 45.9675C100.682 44.9643 100.866 44.0522 100.956 42.9578C100.956 42.7753 101.047 42.6841 101.321 42.6841C101.777 42.6841 102.324 42.6841 102.78 42.6841C102.962 42.6841 103.054 42.7753 103.054 42.8656C103.054 43.505 103.054 44.2337 102.962 44.8731C102.873 45.6018 102.508 46.2411 102.143 46.8796C101.87 47.2444 101.687 47.6101 101.505 47.974C101.414 48.1564 101.414 48.2477 101.597 48.3379C102.235 49.0685 102.599 49.8893 102.873 50.8014C103.055 51.3486 103.148 51.8949 103.329 52.4422C103.329 52.5343 103.329 52.6255 103.238 52.6255C102.599 52.6255 101.961 52.6255 101.322 52.6255C101.231 52.6255 101.14 52.4422 101.049 52.3519C100.866 51.5301 100.593 50.8014 100.228 50.1621C100.046 49.8893 99.8632 49.6157 99.5896 49.4333C99.4984 49.5245 99.4984 49.5245 99.4984 49.5245Z" fill="white"/>
<path d="M66.8469 46.606C66.8469 47.974 66.939 49.3421 66.939 50.8023C66.939 50.8935 66.939 50.9838 66.939 51.075C66.939 51.1671 67.0302 51.1671 67.1214 51.1671C67.1214 51.1671 67.1214 51.1671 67.2126 51.1671C68.0335 50.9847 67.9423 51.075 68.0335 50.2551C68.0335 48.7046 68.0335 47.155 68.1247 45.6027C68.1247 44.5994 68.1247 43.6874 68.1247 42.685C68.1247 42.4114 68.1247 42.3202 68.4895 42.3202C68.9455 42.3202 69.4016 42.229 69.8576 42.229C70.1312 42.229 70.1312 42.229 70.1312 42.5026C70.1312 43.4147 70.1312 44.3267 70.1312 45.1467C70.1312 46.4235 70.1312 47.6101 70.1312 48.887C70.1312 49.6166 70.1312 50.3472 69.8576 51.075C69.4919 52.2607 68.8534 52.6255 67.5765 52.7167C66.8469 52.8079 66.2085 52.6255 65.57 52.2607C65.0219 51.8959 64.658 51.3486 64.658 50.7102C64.5668 48.4301 64.5668 46.2411 64.5668 43.961C64.5668 43.5962 64.5668 43.2305 64.5668 42.7744C64.5668 42.5929 64.658 42.5929 64.7492 42.5929C65.2973 42.5929 65.9349 42.6841 66.4821 42.6841C66.846 42.6841 66.846 42.6841 66.846 43.049C66.9381 44.2337 66.9381 45.4203 66.8469 46.606Z" fill="white"/>
<path d="M92.5668 50.8926C92.5668 51.3486 92.5668 51.8047 92.5668 52.3519C92.5668 52.5343 92.4756 52.6264 92.2932 52.6264C91.9283 52.6264 91.5635 52.6264 91.1987 52.6264C91.0163 52.6264 90.9251 52.5343 90.9251 52.3519C90.8339 50.9838 90.8339 49.7069 90.7427 48.3389C90.6515 46.5148 90.6515 44.7828 90.6515 42.9587C90.6515 42.7763 90.6515 42.6851 90.8339 42.6851C91.6547 42.5929 92.3844 42.5929 93.2052 42.5017C93.8437 42.5017 94.5733 42.5938 95.1205 43.0499C95.6678 43.4138 95.8502 43.8698 96.0326 44.417C96.3062 45.2379 96.3974 46.0578 96.1238 46.8796C96.1238 47.518 95.8502 47.974 95.3941 48.4301C95.2117 48.6125 95.2117 48.794 95.2117 49.0685C95.4853 49.9806 95.6678 50.8014 95.8502 51.7134C95.9414 51.9862 95.9414 52.1695 95.9414 52.4422C95.9414 52.6255 95.8502 52.6255 95.759 52.6255C95.3029 52.6255 94.939 52.7167 94.483 52.7167C94.3909 52.7167 94.3006 52.6255 94.2085 52.5343C94.0261 51.7134 93.8437 50.8926 93.6612 50.0718C93.57 49.8893 93.57 49.6157 93.4788 49.4333C93.4788 49.3412 93.3876 49.25 93.3876 49.25C93.114 49.25 92.8395 49.1588 92.5668 49.1588C92.5668 49.1588 92.4756 49.3412 92.4756 49.4333C92.5668 49.9806 92.5668 50.4366 92.5668 50.8926ZM92.5668 45.9675C92.5668 46.4236 92.5668 46.7884 92.5668 47.2444C92.5668 47.4259 92.5668 47.518 92.7492 47.4259C93.2964 47.3347 93.8437 47.1532 94.2997 46.8787C94.3909 46.7875 94.4821 46.6972 94.4821 46.605C94.5733 45.9666 94.39 45.3291 94.2076 44.7809C94.1164 44.5985 94.0261 44.5073 93.7515 44.5073C93.4779 44.5073 93.114 44.5073 92.8395 44.5073C92.658 44.5073 92.658 44.5985 92.658 44.6888C92.5668 45.1458 92.5668 45.5115 92.5668 45.9675Z" fill="white"/>
<path d="M78.6124 46.0578C78.6124 45.2379 78.6124 44.0522 78.6124 42.8656C78.6124 42.6841 78.7036 42.5929 78.886 42.5929C79.7068 42.6841 80.6189 42.6841 81.4397 42.7744C81.6222 42.7744 81.8046 42.8656 81.9879 42.9568C82.8078 43.3207 83.4472 43.8689 83.812 44.6888C83.9032 44.9634 83.9944 45.237 83.9944 45.5097C83.9944 46.5129 84.0856 47.5162 84.0856 48.5204C84.0856 49.3403 83.9032 50.0699 83.5384 50.8005C83.2638 51.3477 82.8078 51.8037 82.1703 51.9852C81.1661 52.4422 80.1629 52.6255 79.0684 52.6255C78.6124 52.6255 78.3388 52.3519 78.3388 51.8959C78.43 50.0718 78.5212 48.2477 78.6124 46.0578ZM82.0782 47.1532C82.0782 46.605 82.0782 46.0578 81.8958 45.6018C81.8046 45.0546 81.4397 44.6897 80.8925 44.5082C80.6189 44.417 80.6189 44.5082 80.6189 44.7819C80.6189 45.6018 80.6189 46.5138 80.5268 47.3356C80.5268 48.1564 80.4356 48.9782 80.4356 49.7981C80.4356 50.0718 80.4356 50.4366 80.5268 50.7102C80.5268 50.8926 80.7092 50.8926 80.7092 50.8023C81.1652 50.4375 81.53 50.0718 81.7134 49.4342C81.987 48.7037 82.0782 47.974 82.0782 47.1532Z" fill="white"/>
<path d="M109.531 47.7916C109.531 48.6125 109.531 49.3421 109.531 50.163C109.531 50.5278 109.712 50.8935 109.987 51.1671C110.078 51.2592 110.168 51.3495 110.261 51.3495C110.624 51.6232 110.624 51.6232 110.899 51.3495C111.263 50.9847 111.446 50.5287 111.446 49.9815C111.446 49.7991 111.537 49.7069 111.72 49.7069C112.085 49.7069 112.541 49.7069 112.906 49.7069C113.088 49.7069 113.18 49.7069 113.18 49.8903C113.18 50.3463 113.18 50.8023 113.088 51.1662C112.997 51.8959 112.632 52.3519 111.902 52.6255C110.899 52.9894 109.805 53.0815 108.801 52.5334C108.072 52.1695 107.616 51.5292 107.525 50.7093C107.343 49.3412 107.433 47.881 107.525 46.5129C107.525 45.9657 107.525 45.5097 107.617 44.9634C107.617 44.5073 107.89 44.1425 108.165 43.7768C108.985 42.8647 109.897 42.5008 111.082 42.7735C111.994 42.9559 112.725 43.5041 113.181 44.324C113.362 44.6879 113.455 45.0536 113.362 45.4185C113.362 45.6 113.271 45.6921 113.089 45.6921C112.633 45.6921 112.177 45.6921 111.63 45.6921C111.447 45.6921 111.356 45.6 111.447 45.4185C111.538 44.78 110.9 44.324 110.353 44.5064C109.897 44.5976 109.533 44.9624 109.533 45.6C109.531 46.3323 109.531 47.062 109.531 47.7916Z" fill="white"/>
<path d="M84.9968 47.8819C84.9968 46.3323 84.9968 44.7819 84.9968 43.2305C84.9968 43.049 85.088 42.9568 85.2704 42.9568C86.6384 42.9568 87.9153 42.9568 89.2834 42.9568C89.6473 42.9568 89.7394 42.9568 89.7394 43.4129C89.7394 43.7768 89.7394 44.1425 89.7394 44.5073C89.7394 44.6888 89.6473 44.7809 89.4658 44.7809C88.8274 44.7809 88.0977 44.7809 87.4593 44.7809C87.1857 44.7809 87.0945 44.8731 87.0945 45.0546C87.0945 45.7851 87.0945 46.4226 87.0945 47.1532C87.0945 47.3347 87.1866 47.4259 87.3681 47.4259C87.8241 47.4259 88.2801 47.3347 88.7362 47.3347C88.9186 47.3347 89.0107 47.3347 89.0107 47.5171C89.0107 47.9731 89.0107 48.337 88.9186 48.7931C88.9186 48.8861 88.7362 48.9773 88.645 48.9773C88.1889 48.9773 87.8241 49.0685 87.3681 49.0685C87.1866 49.0685 87.0945 49.1597 87.0945 49.3421C87.0945 49.8903 87.0945 50.4366 87.0945 51.0741C87.0945 51.2574 87.1866 51.3486 87.3681 51.3486C88.0986 51.3486 88.7362 51.3486 89.4667 51.2574C89.6482 51.2574 89.7403 51.2574 89.7403 51.5301C89.7403 51.8949 89.7403 52.2607 89.7403 52.7167C89.7403 52.8982 89.6482 52.9903 89.4667 52.9903C88.0986 52.9903 86.7306 52.9903 85.3625 52.9903C85.088 52.9903 85.088 52.9903 85.088 52.7167C85.088 51.1662 85.088 49.6157 85.088 48.1564C85.088 47.8819 85.088 47.8819 84.9968 47.8819Z" fill="white"/>
<path d="M104.15 47.6092C104.15 46.0578 104.15 44.5082 104.15 43.049C104.15 42.8656 104.241 42.7744 104.423 42.7744C104.972 42.6832 105.609 42.5929 106.156 42.4096C106.339 42.4096 106.339 42.4096 106.43 42.5929C106.43 43.505 106.521 44.5082 106.521 45.4203C106.521 47.518 106.521 49.706 106.521 51.8047C106.521 52.3519 106.521 52.2607 106.065 52.3519C105.518 52.3519 104.972 52.4431 104.423 52.4431C104.241 52.4431 104.15 52.3519 104.15 52.1704C104.059 50.7102 104.059 49.1597 104.15 47.6092C104.059 47.6092 104.059 47.6092 104.15 47.6092Z" fill="white"/>
</g>
<defs>
<clipPath id="clip0_75_23982">
<rect width="90.8404" height="28" fill="white" transform="translate(30 28)"/>
</clipPath>
</defs>
</svg>
