<svg width="151" height="84" viewBox="0 0 151 84" fill="none" xmlns="http://www.w3.org/2000/svg">
<path fill-rule="evenodd" clip-rule="evenodd" d="M53.6034 32H59.5574C59.3145 32.2091 59.1168 32.4737 59.0057 32.8493C58.1863 32.8877 57.3627 33.0072 56.5433 33.2164C55.6251 33.4511 54.8263 34.0187 54.8263 34.9961C54.8263 35.3119 54.9087 35.6107 55.0487 35.871L55.0404 35.6662L55.1639 35.6022C55.2751 35.5424 55.3945 35.4912 55.5098 35.44C55.8063 35.3119 56.1151 35.2052 56.4239 35.1156C58.2357 34.5864 60.9038 34.5864 62.7156 35.1156C63.0244 35.2052 63.3332 35.3162 63.6297 35.44C63.745 35.4869 63.8644 35.5424 63.9756 35.6022L64.0991 35.6662L64.0909 35.871C64.2309 35.6107 64.3132 35.3119 64.3132 34.9961C64.3132 34.0187 63.5144 33.4426 62.5962 33.2164C61.7233 33.003 60.8503 32.8749 59.9774 32.8451C60.1586 32.6061 60.4386 32.4524 60.7186 32.303C60.8956 32.2049 61.0727 32.111 61.2333 32H65.5361C66.1208 32 66.5985 32.4951 66.5985 33.1011V50.8943C66.5985 51.5004 66.1208 51.9955 65.5361 51.9955H53.6034C53.0187 51.9955 52.541 51.5004 52.541 50.8943V33.1011C52.5369 32.4951 53.0146 32 53.6034 32ZM60.4592 40.664C61.9703 39.772 62.6621 38.7434 62.7485 37.0405C62.135 39.1232 61.2374 40.1305 60.4592 40.664ZM55.3616 38.0008C55.5757 40.9884 58.6886 41.2402 59.5698 42.9303C60.4509 41.2402 63.5638 40.9841 63.7779 38.0008L63.8768 35.7985C61.7479 34.6504 57.3957 34.6504 55.2669 35.7985L55.3616 38.0008Z" fill="url(#paint0_linear_75_22885)"/>
<path fill-rule="evenodd" clip-rule="evenodd" d="M37.3309 32H49.2637C49.8484 32 50.326 32.4951 50.326 33.1011V50.8943C50.326 51.5004 49.8484 51.9955 49.2637 51.9955H37.3309C36.7462 51.9955 36.2686 51.5004 36.2686 50.8943V33.1011C36.2686 32.4951 36.7462 32 37.3309 32ZM44.2525 45.6874C45.7637 44.7954 46.4555 43.7668 46.5419 42.0638C45.9284 44.1466 45.0308 45.1539 44.2525 45.6874ZM39.0932 43.1863C39.3073 46.1739 42.4202 46.43 43.3014 48.1159C44.1826 46.4257 47.2954 46.1696 47.5096 43.1863L47.6084 40.9841C45.4796 39.836 41.1273 39.836 38.9985 40.9841L39.0932 43.1863ZM42.7373 38.0349C41.9179 38.0733 41.0944 38.1928 40.275 38.402C39.3567 38.6367 38.5579 39.2043 38.5579 40.1817C38.5579 40.4975 38.6403 40.7963 38.7803 41.0566L38.7721 40.8518L38.8956 40.7878C39.0068 40.728 39.1261 40.6768 39.2415 40.6256C39.5379 40.4975 39.8468 40.3908 40.1556 40.3012C41.9673 39.772 44.6355 39.772 46.4472 40.3012C46.7561 40.3908 47.0649 40.5018 47.3613 40.6256C47.4766 40.6725 47.596 40.728 47.7072 40.7878L47.8307 40.8518L47.8225 41.0566C47.9625 40.7963 48.0449 40.4975 48.0449 40.1817C48.0449 39.2043 47.246 38.6282 46.3278 38.402C45.4549 38.1886 44.582 38.0605 43.7091 38.0307C43.8902 37.7916 44.1702 37.638 44.4502 37.4886C45.0679 37.1514 45.669 36.8228 45.7431 35.8796C44.5985 36.029 45.1749 35.9735 44.0467 36.6948C43.5032 36.9935 42.9473 37.2966 42.7373 38.0349Z" fill="url(#paint1_linear_75_22885)"/>
<path fill-rule="evenodd" clip-rule="evenodd" d="M21.0623 32H22.7794L22.8205 32.9347C23.0347 35.9223 26.1476 36.1741 27.0287 37.8642C27.9099 36.1741 31.0228 35.918 31.2369 32.9347L31.2781 32H32.9951C33.5798 32 34.0574 32.4951 34.0574 33.1011V50.8943C34.0574 51.5004 33.5798 51.9954 32.9951 51.9954H31.2822L31.3357 50.8132C29.2069 49.6651 24.8546 49.6651 22.7258 50.8132L22.7794 51.9954H21.0623C20.4776 51.9997 20 51.5004 20 50.8943V33.1011C20 32.4951 20.4776 32 21.0623 32ZM30.2898 32C29.6846 33.7797 28.8652 34.6803 28.1446 35.1711C29.5157 34.3602 30.2116 33.434 30.3928 32H30.2898ZM26.4687 47.8683C25.6493 47.9067 24.8258 48.0262 24.0064 48.2354C23.0882 48.4701 22.2894 49.0377 22.2894 50.0151C22.2894 50.3309 22.3717 50.6297 22.5117 50.89L22.5035 50.6852L22.627 50.6212C22.7382 50.5614 22.8576 50.5102 22.9729 50.459C23.2694 50.3309 23.5782 50.2242 23.887 50.1346C25.6987 49.6054 28.3669 49.6054 30.1787 50.1346C30.4875 50.2242 30.7963 50.3352 31.0928 50.459C31.2081 50.5059 31.3275 50.5614 31.4386 50.6212L31.5622 50.6852L31.554 50.89C31.694 50.6297 31.7763 50.3309 31.7763 50.0151C31.7763 49.0377 30.9775 48.4616 30.0593 48.2354C29.1863 48.022 28.3134 47.8939 27.4405 47.864C27.6216 47.625 27.9016 47.4714 28.1816 47.322C28.7993 46.9848 29.4004 46.6562 29.4746 45.713C28.3299 45.8623 28.9063 45.8069 27.7781 46.5282C27.2346 46.8227 26.6787 47.1257 26.4687 47.8683Z" fill="url(#paint2_linear_75_22885)"/>
<path fill-rule="evenodd" clip-rule="evenodd" d="M93.9724 43.5022C97.2828 43.5022 99.6878 40.9115 99.6878 37.749V37.7191C99.6878 34.5565 97.3115 32 94.0011 32C90.6908 32 88.2858 34.5907 88.2858 37.749V37.7788C88.2858 40.9457 90.662 43.5022 93.9724 43.5022ZM94.0011 41.2444C92.0987 41.2444 90.7522 39.6567 90.7522 37.749V37.7191C90.7522 35.8113 92.0699 34.2578 93.9724 34.2578C95.8749 34.2578 97.2213 35.8454 97.2213 37.7532V37.7831C97.2213 39.6909 95.9036 41.2444 94.0011 41.2444ZM78.1235 43.5021C80.5161 43.5021 81.986 41.9614 81.986 39.8658V39.836C81.986 37.7703 80.5612 36.9764 79.1038 36.7204L81.8175 34.0358V32.1921H74.5663V34.2876H78.7826L76.2215 36.9551L76.5878 38.5129H77.568C78.8857 38.5129 79.6677 39.0208 79.6677 39.9256V39.9555C79.6677 40.7835 79.0378 41.3042 78.1483 41.3042C77.0615 41.3042 76.2954 40.8261 75.5585 39.9683L73.9404 41.5816C74.8587 42.7083 76.1928 43.5021 78.1235 43.5021ZM102.582 43.3106H100.178L104.777 32.1115H106.955L111.546 43.3106H109.08L108.1 40.8181H103.562L102.582 43.3106ZM105.835 35.0521L104.411 38.6586H107.26L105.835 35.0521ZM113.206 43.3101H115.569V39.9128L116.809 38.5769L120.135 43.3101H122.969L118.402 36.9082L122.771 32.1921H119.921L115.569 37.0533V32.1921H113.206V43.3101ZM131.998 40.0238C131.998 42.2346 130.372 43.4723 128.057 43.4723C126.435 43.4723 124.793 42.8833 123.508 41.6926L124.904 39.9598C125.871 40.7835 126.88 41.3085 128.107 41.3085C129.075 41.3085 129.655 40.9116 129.655 40.2586V40.2287C129.655 39.6098 129.289 39.294 127.493 38.816C125.332 38.2441 123.936 37.621 123.936 35.4144V35.3845C123.936 33.3701 125.501 32.0342 127.691 32.0342C129.256 32.0342 130.59 32.5421 131.677 33.4469L130.45 35.2906C129.503 34.6078 128.568 34.1938 127.662 34.1938C126.757 34.1938 126.283 34.6206 126.283 35.1626V35.1967C126.283 35.9266 126.744 36.1656 128.597 36.6564C130.771 37.2454 131.998 38.0563 131.998 39.9939V40.0238ZM76.2955 52C77.1151 52 77.749 51.6671 78.2103 51.2617V49.2471H76.2628V50.1306H77.2549V50.7922C77.0036 50.98 76.687 51.0696 76.3287 51.0696C75.5338 51.0696 74.9738 50.4465 74.9738 49.5971V49.5843C74.9738 48.7947 75.5422 48.1375 76.2588 48.1375C76.7777 48.1375 77.0864 48.3082 77.4278 48.6069L78.0498 47.8302C77.5844 47.4205 77.0943 47.1943 76.2915 47.1943C74.9366 47.1943 73.9445 48.2741 73.9445 49.5971V49.6099C73.9405 50.9842 74.8999 52 76.2955 52ZM85.9224 51.9183H84.9179L86.8327 47.2407H87.7426L89.6614 51.9183H88.6322L88.2243 50.877H86.3302L85.9224 51.9183ZM87.2812 48.4698L86.6846 49.9764H87.8784L87.2812 48.4698ZM96.5086 51.9184H97.472V48.9052L98.7198 50.8727H98.7486L100.009 48.8881V51.9184H100.989V47.2748H99.9265L98.7486 49.2381L97.5711 47.2748H96.5086V51.9184ZM108.256 47.2748H109.24V51.9184H108.256V47.2748ZM116.508 51.9184H117.484V48.965L119.654 51.9184H120.49V47.2748H119.518V50.1343L117.418 47.2748H116.508V51.9184ZM131.784 51.2617C131.323 51.6671 130.689 52 129.87 52C128.478 52 127.514 50.9842 127.514 49.6099V49.5971C127.514 48.2741 128.507 47.1943 129.861 47.1943C130.664 47.1943 131.154 47.4205 131.62 47.8302L130.998 48.6069C130.656 48.3082 130.347 48.1375 129.829 48.1375C129.112 48.1375 128.544 48.7947 128.544 49.5843V49.5971C128.544 50.4465 129.108 51.0696 129.902 51.0696C130.261 51.0696 130.578 50.98 130.829 50.7922V50.1306H129.837V49.2471H131.784V51.2617Z" fill="white"/>
<defs>
<linearGradient id="paint0_linear_75_22885" x1="65.9077" y1="32.7839" x2="52.7657" y2="50.5667" gradientUnits="userSpaceOnUse">
<stop stop-color="#F8B900"/>
<stop offset="1" stop-color="#E67508"/>
</linearGradient>
<linearGradient id="paint1_linear_75_22885" x1="49.6389" y1="32.784" x2="36.4969" y2="50.5667" gradientUnits="userSpaceOnUse">
<stop stop-color="#F8B900"/>
<stop offset="1" stop-color="#E67508"/>
</linearGradient>
<linearGradient id="paint2_linear_75_22885" x1="33.3699" y1="32.7839" x2="20.2278" y2="50.5667" gradientUnits="userSpaceOnUse">
<stop stop-color="#F8B900"/>
<stop offset="1" stop-color="#E67508"/>
</linearGradient>
</defs>
</svg>
