<svg width="151" height="84" viewBox="0 0 151 84" fill="none" xmlns="http://www.w3.org/2000/svg">
<g clip-path="url(#clip0_75_22892)">
<path d="M41.8392 41.2828H35.7361L34.8202 44.1596C34.5158 44.7648 34.3632 45.3699 34.3632 45.6734C34.3632 45.9751 34.5158 46.2786 34.6684 46.4303C34.9728 46.5821 35.4308 46.732 36.194 46.8837V47.339H31.3121V46.8837C31.9226 46.732 32.3797 46.5821 32.5323 46.2786C32.9902 45.8252 33.4482 45.0664 33.9061 43.7044L39.2451 28.8689H39.703L45.0429 43.8561C45.3482 45.0664 45.8061 45.8233 46.1105 46.2786C46.5684 46.5802 47.0264 46.732 47.6361 46.8837V47.3381H41.533V46.8837C42.1435 46.732 42.6015 46.732 42.7541 46.4303C43.0594 46.2786 43.0594 45.9751 43.0594 45.6734C43.0594 45.3699 42.9068 44.7648 42.6015 43.8561L41.8392 41.2828ZM41.3812 40.3742L38.7881 33.1077L36.194 40.3742H41.3812ZM54.9603 33.7138L58.622 43.7044L62.131 33.7138H65.9453V34.1672C65.4883 34.1672 65.183 34.3181 65.0304 34.3181C64.7251 34.4698 64.5724 34.6206 64.4198 34.9232C64.2672 35.075 64.2672 35.3775 64.2672 35.6801V45.2164C64.2672 45.5199 64.2672 45.8233 64.4198 45.9733C64.5724 46.2768 64.7251 46.4285 64.8777 46.5802C65.183 46.7302 65.4883 46.7302 65.9453 46.7302V47.3372H60.6055V46.7302C61.0634 46.7302 61.3687 46.7302 61.5213 46.5802C61.674 46.4285 61.8266 46.125 61.9793 45.9733C62.1319 45.6716 62.1319 45.3681 62.1319 45.0646V35.681L58.165 47.3372H57.707L53.8927 36.2871H53.7401V44.4613C53.7401 45.0664 53.7401 45.3699 53.8927 45.6734C53.8927 45.9751 54.0453 46.2786 54.198 46.4303C54.3506 46.5821 54.5033 46.5821 54.8077 46.732H55.7235V47.339H51.2995V46.732C51.7566 46.732 52.0619 46.732 52.3672 46.5821L52.8251 46.1268C52.9777 45.8252 52.9777 45.6734 52.9777 45.3699V37.3475V35.9836C52.9777 35.5293 52.9777 35.2267 52.8251 34.9241C52.6724 34.7733 52.5198 34.4707 52.3672 34.319C52.0619 34.319 51.7566 34.1681 51.2995 34.1681V33.7138H54.9603ZM70.065 47.3372V46.7311H70.5229C70.6755 46.7311 70.8282 46.5793 70.9808 46.4294C71.1335 46.2777 71.2861 45.9742 71.4388 45.6725C71.5905 45.369 71.8958 44.9138 72.0484 44.3086L75.8628 33.2577H76.1681L80.4394 45.0655C80.5912 45.5208 80.7447 45.8224 80.8973 45.9742C81.05 46.2777 81.2026 46.4294 81.3553 46.5793C81.5079 46.5793 81.6606 46.7311 81.8132 46.7311H82.2712V47.3372H77.5419V46.7311H78.1533L78.4586 46.4294C78.4586 46.4294 78.6104 46.2777 78.6104 46.1259C78.6104 45.9742 78.6104 45.6725 78.4586 45.5208C78.4586 45.369 78.3051 45.0655 78.3051 44.9138L77.5419 43.0974H73.4222L72.8117 44.9138C72.8117 45.0655 72.659 45.2173 72.659 45.369V45.8224C72.659 45.9742 72.659 46.1259 72.8117 46.2777C72.8117 46.4294 72.9643 46.5793 73.117 46.5793C73.117 46.5793 73.2696 46.7311 73.4222 46.7311H73.7275V47.3372H70.065ZM73.7266 42.1906H77.2357L75.4048 37.1948L73.7266 42.1906ZM94.3229 33.7138L94.4764 36.8932H94.0185C94.0185 36.4388 93.8668 35.9845 93.8668 35.6819C93.7132 35.3793 93.5615 35.2276 93.4079 34.925C93.1026 34.7742 92.95 34.7742 92.7973 34.6224H90.2033V44.4631C90.2033 44.7666 90.2033 45.0683 90.3568 45.3717C90.3568 45.6752 90.3568 45.9769 90.5086 46.1286C90.663 46.2804 90.8148 46.4321 91.1201 46.5821C91.2718 46.7338 91.5771 46.7338 92.0359 46.7338V47.3399H86.3908V46.7329C86.8487 46.7329 87.154 46.7329 87.4593 46.5812L87.9172 46.1277C88.0708 45.976 88.0708 45.6743 88.0708 45.3708C88.2225 45.0673 88.2225 44.7657 88.2225 44.4622V34.6215H86.5452C86.0864 34.6215 85.7811 34.6215 85.4758 34.7724C85.1705 34.7724 85.0188 34.9232 84.8652 35.2267C84.7135 35.3775 84.5599 35.681 84.5599 35.9836C84.4082 36.2862 84.4082 36.5888 84.4082 36.8923H83.9493L84.1029 33.7129L94.3229 33.7138ZM104.547 47.3372H99.0549V46.7311C99.5119 46.7311 99.8172 46.7311 99.969 46.5793C100.274 46.5793 100.429 46.4294 100.429 46.1259C100.58 45.9742 100.734 45.8224 100.734 45.5208V36.4379V35.681C100.734 35.3784 100.734 35.0759 100.58 34.9241C100.429 34.6215 100.274 34.4707 100.123 34.319C99.8172 34.319 99.5119 34.1681 99.0549 34.1681V33.7138H104.547V34.1672C104.089 34.1672 103.783 34.3181 103.478 34.3181C103.325 34.4698 103.172 34.6206 103.02 34.9232C102.867 35.075 102.867 35.3775 102.867 35.6801V45.5199C102.867 45.8233 103.02 45.9733 103.02 46.125C103.172 46.4285 103.325 46.5802 103.631 46.5802C103.783 46.7302 104.089 46.7302 104.547 46.7302V47.3372ZM120.566 38.1035H120.107C120.107 37.9517 119.956 37.8009 119.956 37.4974C119.956 37.3466 119.802 37.1948 119.65 36.8923C119.65 36.7405 119.497 36.5897 119.345 36.2871C119.345 36.1353 119.193 35.9845 119.04 35.6819C118.733 35.5302 118.582 35.2276 118.276 35.0768C117.971 34.925 117.818 34.6224 117.512 34.6224L116.599 34.1681H115.682C115.224 34.1681 114.614 34.319 114.158 34.6224C113.699 34.925 113.242 35.2276 112.937 35.8337C112.478 36.4388 112.172 37.0449 112.021 37.8018C111.867 38.5587 111.715 39.4673 111.715 40.3751C111.715 41.2837 111.867 42.0406 112.021 42.7966C112.021 43.4027 112.326 44.0097 112.478 44.4631C112.783 44.9165 112.937 45.22 113.242 45.5235C113.547 45.8252 113.852 46.1286 114.158 46.2804C114.463 46.4321 114.768 46.5821 115.074 46.5821C115.379 46.7338 115.684 46.7338 115.989 46.7338C116.448 46.7338 116.905 46.7338 117.363 46.4321C117.82 46.2804 118.431 45.9769 118.889 45.5235C119.041 45.3717 119.194 45.0683 119.346 44.9165C119.498 44.7666 119.498 44.6148 119.651 44.4631C119.803 44.1596 119.956 44.0097 119.956 43.8579C120.108 43.5544 120.108 43.4027 120.262 43.101L120.72 43.4027C120.567 43.5544 120.567 43.8579 120.414 44.0097L119.956 44.9165C119.803 45.22 119.651 45.5235 119.346 45.8252C119.041 46.2804 118.734 46.4321 118.429 46.7338C117.972 47.0373 117.513 47.189 117.055 47.3399C116.598 47.6424 116.139 47.6424 115.531 47.6424C114.615 47.6424 114.006 47.4907 113.244 47.189C112.479 46.7338 111.87 46.2804 111.259 45.6752C110.802 45.0683 110.343 44.3113 109.885 43.5544C109.58 42.6458 109.428 41.7372 109.428 40.6777C109.428 39.6182 109.58 38.7095 109.885 37.8018C110.191 36.8941 110.649 36.1363 111.259 35.3793C111.718 34.7742 112.48 34.3199 113.089 33.8655C113.852 33.563 114.615 33.2604 115.531 33.2604C116.142 33.2604 116.599 33.4112 117.055 33.563L117.972 34.0173C118.124 34.0173 118.277 34.1681 118.429 34.1681C118.583 34.319 118.734 34.319 118.734 34.319H118.889L119.041 34.4707C119.041 34.4707 119.041 34.319 119.194 34.319C119.194 34.319 119.346 34.319 119.346 34.1681C119.498 34.1681 119.498 34.0173 119.498 33.8655C119.651 33.7147 119.651 33.563 119.651 33.2604H120.108L120.566 38.1035ZM30.7015 51.4261H31.4647V55.8148H30.7015V51.4261ZM39.703 51.4261H40.161L41.2286 54.4537V54.1511V53.8476V53.545V51.4261H41.8392V55.8148H41.2286L40.161 53.0889V53.5441C40.3136 53.6941 40.3136 53.8458 40.3136 53.9975V55.8148H39.703V51.4261ZM50.0784 51.4261H50.689C50.8416 51.4261 50.9942 51.4261 51.1469 51.576H51.4522C51.4522 51.576 51.6048 51.576 51.7566 51.7277C51.7566 51.7277 51.9092 51.8795 51.9092 52.0312C52.0619 52.0312 52.0619 52.183 52.2145 52.3329V54.908C52.0619 55.2115 52.0619 55.3623 51.9092 55.3623C51.9092 55.5132 51.7566 55.6649 51.7566 55.6649C51.6048 55.6649 51.4522 55.8166 51.4522 55.8166H50.0784V51.4261ZM50.8407 55.3605H51.146C51.2986 55.3605 51.2986 55.2097 51.4513 55.2097V54.9062V53.0889V52.4837V52.1803C51.2986 52.1803 51.2986 52.0303 51.146 52.0303H50.6881V55.3605H50.8407ZM60.3002 51.4261H60.9108V55.0579C60.9108 55.2097 61.0634 55.2097 61.0634 55.2097C61.0634 55.3605 61.0634 55.3605 61.2161 55.3605H61.5213L61.674 55.2097V55.0579V51.4261H62.4372V54.6054C62.4372 54.7563 62.2846 54.908 62.2846 55.0597C62.2846 55.2115 62.2846 55.3623 62.1319 55.5132C62.1319 55.5132 62.1319 55.6649 61.9793 55.6649C61.9793 55.8166 61.8266 55.8166 61.8266 55.8166C61.674 55.8166 61.674 55.9684 61.5213 55.9684H61.0634L60.9108 55.8166C60.7581 55.8166 60.7581 55.8166 60.6055 55.6649L60.4528 55.5132C60.4528 55.3623 60.3002 55.2115 60.3002 55.0597V51.4261ZM70.3703 55.0579V54.7544C70.3703 54.6036 70.5229 54.6036 70.5229 54.4519H70.9808V55.0579L71.1335 55.2097C71.1335 55.3605 71.1335 55.3605 71.2861 55.3605H71.7432C71.7432 55.2097 71.8958 55.2097 71.8958 55.0579C71.8958 54.9062 71.8958 54.9062 71.7432 54.7544V54.6036V54.4519C71.5905 54.4519 71.5905 54.301 71.5905 54.301L70.8282 53.3924C70.6755 53.2406 70.6755 53.0889 70.5229 52.9372C70.5229 52.7872 70.3703 52.6355 70.3703 52.4837C70.3703 52.332 70.5229 52.1803 70.5229 52.0303C70.5229 51.8786 70.6755 51.8786 70.6755 51.7268C70.8282 51.5751 70.8282 51.5751 70.9808 51.5751C71.1335 51.4233 71.2861 51.4233 71.4388 51.4233C71.5905 51.4233 71.7432 51.4233 71.8958 51.5751C72.0484 51.5751 72.2011 51.7268 72.2011 51.7268C72.3537 51.8786 72.3537 51.8786 72.3537 52.0303C72.5064 52.1803 72.5064 52.332 72.5064 52.332V52.6355C72.3537 52.7872 72.3537 52.7872 72.3537 52.9372H71.8958V52.6355C71.8958 52.4837 71.8958 52.332 71.7432 52.1803C71.7432 52.0303 71.5905 52.0303 71.4388 52.0303H71.1335V52.7872C71.2861 52.7872 71.2861 52.9372 71.2861 52.9372L72.0484 53.8458C72.2011 53.9975 72.3537 54.1493 72.3537 54.301C72.5064 54.6036 72.5064 54.7544 72.5064 54.9062C72.5064 55.0579 72.5064 55.2097 72.3537 55.3605C72.3537 55.5113 72.3537 55.5113 72.2011 55.6631C72.0484 55.6631 72.0484 55.8148 71.8958 55.8148C71.7432 55.9666 71.5905 55.9666 71.4388 55.9666C71.2861 55.9666 71.1335 55.9666 70.9808 55.8148C70.8282 55.8148 70.6755 55.6631 70.6755 55.6631C70.5229 55.5113 70.5229 55.5113 70.5229 55.3605C70.3703 55.2097 70.3703 55.0579 70.3703 55.0579ZM80.8973 52.0303H80.2859V51.4233H82.2702V52.0303H81.6588V55.813H80.8955L80.8973 52.0303ZM90.2042 51.4261H90.9683C91.1201 51.4261 91.1201 51.4261 91.2736 51.576H91.5789C91.5789 51.576 91.7306 51.576 91.8842 51.7277C91.8842 51.7277 92.0368 51.7277 92.0368 51.8795C92.1895 52.0312 92.1895 52.0312 92.1895 52.183C92.3421 52.3329 92.3421 52.4846 92.3421 52.7881C92.3421 53.2415 92.3421 53.3933 92.1895 53.6968L91.7306 54.1511L92.4948 55.8166H91.7306L91.1201 54.3028H90.9683V55.8166H90.2042V51.4261ZM90.9683 53.6941H91.2736C91.4254 53.6941 91.4253 53.6941 91.5789 53.5441V53.3924V52.6355V52.332V52.1803C91.4253 52.0303 91.4254 52.0303 91.2736 52.0303H90.9683V53.6941ZM100.427 51.4261H101.037V55.8148H100.427V51.4261ZM109.276 51.4261H110.953V52.0312H110.037V53.3933H110.801V53.8476H110.037V55.3623H110.953V55.8166H109.276V51.4261ZM118.735 55.0579C118.735 54.9062 118.735 54.7544 118.889 54.7544V54.4519H119.346V55.0579L119.499 55.2097C119.499 55.3605 119.499 55.3605 119.651 55.3605H120.11C120.11 55.2097 120.263 55.2097 120.263 55.0579V54.7544C120.263 54.7544 120.11 54.7544 120.11 54.6036V54.4519C119.956 54.4519 119.956 54.301 119.956 54.301L119.194 53.3924C119.041 53.2406 119.041 53.0889 118.889 52.9372V52.4837V52.0303C118.889 51.8786 119.041 51.8786 119.041 51.7268C119.194 51.5751 119.346 51.5751 119.346 51.5751C119.499 51.4233 119.651 51.4233 119.805 51.4233C119.956 51.4233 120.263 51.4233 120.263 51.5751C120.415 51.5751 120.568 51.7268 120.568 51.7268L120.871 52.0303V52.6355C120.871 52.7872 120.719 52.7872 120.719 52.9372H120.261V52.6355C120.261 52.4837 120.261 52.332 120.107 52.1803C120.107 52.0303 119.956 52.0303 119.802 52.0303H119.497V52.7872C119.65 52.7872 119.65 52.9372 119.65 52.9372L120.413 53.8458C120.566 53.9975 120.719 54.1493 120.719 54.301C120.871 54.6036 120.871 54.7544 120.871 54.9062V55.3605L120.566 55.6631C120.566 55.6631 120.413 55.8148 120.261 55.8148C120.107 55.9666 119.956 55.9666 119.802 55.9666C119.65 55.9666 119.497 55.9666 119.345 55.8148C119.193 55.8148 119.04 55.6631 119.04 55.6631C118.888 55.5113 118.888 55.5113 118.888 55.3605C118.888 55.2097 118.735 55.0579 118.735 55.0579ZM30.5488 49.0027H120.871V49.6088H30.5488V49.0027Z" fill="white"/>
</g>
<defs>
<clipPath id="clip0_75_22892">
<rect width="90.3226" height="28" fill="white" transform="translate(30.5488 28)"/>
</clipPath>
</defs>
</svg>
