<svg width="151" height="84" viewBox="0 0 151 84" fill="none" xmlns="http://www.w3.org/2000/svg">
<path d="M110.145 48.2452C107.358 48.2452 104.94 48.2452 101.998 48.2452C96.9096 48.2452 86.7335 48.2452 81.6445 48.2452C78.7372 48.2452 77.7118 48.2452 76.0035 48.2452H36.4126C34.5248 48.2452 33.5666 47.315 33.183 46.2415C32.9471 45.5836 32.9471 44.8677 33.138 44.1953L34.5541 39.2434C34.9524 37.9122 36.1318 35.6943 39.0227 35.6943H79.7325C82.5718 35.6943 84.4836 35.6943 87.2501 35.6943H108.34C111.972 35.7763 112.898 35.6943 113.97 35.6943H115.922C118.576 35.6943 119.741 37.4684 119.314 39.4439C119.018 40.8749 117.809 44.6671 117.809 44.6671C117.338 46.7851 115.509 48.2452 112.898 48.2452H110.145ZM72.0144 45.3967L74.05 45.3831L75.1706 41.8767C75.4212 40.8604 74.876 39.9875 73.7994 39.9875C73.7994 39.9875 72.3531 39.9875 71.8675 39.9875C70.5249 39.973 69.5218 40.8749 69.1831 41.8051L68.0478 45.3967L70.1275 45.3831L71.1599 41.9339L73.0322 41.9484L72.0144 45.3967ZM69.5218 40.2307L70.3184 37.9412H67.6348L66.7942 40.2307H69.5218ZM63.1956 41.5764H61.3812L62.6046 37.7551H60.5259L59.2566 41.7052C59.0216 42.7207 59.5521 43.5937 60.6287 43.5937C60.6287 43.5937 60.6287 43.5937 60.6442 43.5937L60.0688 45.3967H62.1035L62.6945 43.5937C63.9767 43.551 64.9357 42.6925 65.2606 41.7914L66.573 37.756H64.5383L63.1956 41.5764ZM57.7688 37.7551C57.7688 37.7551 56.3225 37.7551 55.8369 37.7551C54.4943 37.7406 53.4765 38.6281 53.1525 39.5727L51.1912 45.4121H53.2553L53.8895 43.5228L55.7186 43.5373L55.1725 45.4121H57.1632L59.1547 39.6444C59.3906 38.6281 58.8601 37.7551 57.7688 37.7551ZM46.8695 37.7551L44.3622 45.3967H50.3799L51.6621 41.5764H49.6421L49.0226 43.4648H47.1495L48.9785 37.7551H46.8695ZM44.0676 37.7551H40.1736L37.6369 45.4121H39.7018L40.3351 43.5228H42.1495C42.1495 43.5228 44.0382 43.609 44.7908 41.7334C45.0258 41.1463 45.4837 39.6871 45.4837 39.6871C45.8362 38.5283 45.158 37.7551 44.0676 37.7551ZM56.3666 41.5764H54.4209L55.0844 39.6871H57.0016L56.3666 41.5764ZM42.8131 41.5764H40.8812L41.5456 39.6871H43.4628L42.8131 41.5764Z" fill="#2185C7"/>
<path d="M79.6104 36.7137C80.7943 32.9719 84.2665 30.4287 88.1911 30.4287L108.793 30.4287C112.173 30.4287 114.579 33.7139 113.56 36.937L110.318 47.1837C109.134 50.9255 105.661 53.4687 101.737 53.4687H81.1354C77.7547 53.4687 75.3485 50.1835 76.3683 46.9604L79.6104 36.7137Z" fill="black"/>
<path d="M108.681 32.1598C108.681 32.1598 105.318 32.1743 104.093 32.1598C100.76 32.1171 97.9723 34.3349 97.1472 36.8821L94.8015 44.08C92.1913 50.3341 95.5246 51.3931 97.8254 51.3786C99.2113 51.3786 100.582 51.3786 101.66 51.3786C104.491 51.3786 107.604 49.3903 108.43 46.8431L111.616 36.9965C112.47 34.707 111.069 32.1598 108.681 32.1598ZM86.4406 44.2515H88.903L88.1072 46.6707H83.2991L83.9635 44.6381L84.0819 44.2805L85.6595 39.5292L86.4414 37.1398H95.6438L95.6888 36.9965L97.0306 32.4457C97.0306 32.4457 89.3911 32.4602 88.166 32.4457C84.8335 32.403 82.1042 34.864 81.5158 36.8821L79.17 44.08C76.2359 50.7787 80.0997 51.3786 82.194 51.3786C83.5799 51.3786 84.951 51.3786 86.0284 51.3786C89.4948 51.3786 91.9719 49.2469 92.7987 46.6997L94.9371 39.5164H88.0027L86.4406 44.2515ZM103.533 46.6852H99.0791L102.176 37.1253H106.63L103.533 46.6852Z" fill="#ED1F24"/>
</svg>
