<svg width="151" height="84" viewBox="0 0 151 84" fill="none" xmlns="http://www.w3.org/2000/svg">
<g clip-path="url(#clip0_75_23205)">
<path fill-rule="evenodd" clip-rule="evenodd" d="M103.273 31.5455C100.909 31.5455 98.5454 32.2727 96.5454 33.5455C96.2727 32.6364 95 29.0909 91.4545 27.1818C93.9082 27.2727 96 28.7273 97.1818 30.8182C97.1818 30.8182 95.9091 25.1818 96.2727 21C99 24.2727 101 29.6364 101 29.6364C100.818 27.1818 101.817 24.8182 103.727 23.3636C102 26.9091 102.999 30.6364 103.273 31.5455ZM109.273 33.9999C104.091 31.909 98.1818 33.0908 94.1818 36.9999C90.1818 40.909 89.0909 46.909 91.2727 52.0908C93.4536 57.2726 98.5455 60.5454 104.091 60.5454C111.636 60.5454 117.819 54.3636 117.727 46.7272C117.818 41.1817 114.455 36.1817 109.273 33.9999ZM104.182 59.0908C97.3636 58.9999 91.9091 53.5454 91.9091 46.7272C91.9091 39.909 97.3636 34.4545 104.182 34.3636C111 34.3636 116.545 39.909 116.545 46.7272C116.545 53.5454 111 59.0908 104.182 59.0908ZM108.364 42.0004C112.909 41.7277 110.545 36.1832 106 36.455C101.727 36.7277 103.636 42.2732 108.364 42.0004Z" fill="#E99D31"/>
<path fill-rule="evenodd" clip-rule="evenodd" d="M86.1818 44.182C87 44.182 87.8191 44.5456 88.4545 45.182L89.4555 44.2729C88.6373 43.3638 87.4555 42.8184 86.2736 42.8184C85.5464 42.8184 84.91 43.0002 84.2736 43.3638C83.1827 43.9102 82.5464 45.0011 82.3645 46.0911C82.1818 47.2729 82.6364 48.4547 83.4545 49.2729C84.1818 50.0002 85.1818 50.3638 86.2727 50.2729C86.8182 50.2729 87.3636 50.1811 87.9091 50.0002C88.4546 49.7265 89 49.3638 89.4546 48.9093L88.5455 47.9084C88.2727 48.272 87.8182 48.5447 87.4545 48.7265C87.0909 48.9084 86.7273 48.9993 86.3636 48.9084C85.9091 48.9084 85.4545 48.8165 85.0918 48.5447C84.7282 48.3629 84.3636 47.9993 84.1827 47.6356C84 47.2729 83.8182 46.8184 83.9091 46.3638V46.2729C83.7273 45.182 84.9091 44.182 86.1818 44.182ZM100.545 43.1816H99.1818V50.1816H102.545V48.9089H100.545V43.1816ZM97.1818 43.4548C96.6355 43.273 96.0909 43.1821 95.4545 43.273H94V50.273H95.3636V47.273C95.8182 47.273 96.3636 47.273 96.8182 47.1812C97.2727 47.0902 97.6364 46.8184 97.9091 46.5448C98.1818 46.1821 98.3636 45.7275 98.2727 45.273C98.2727 44.9093 98.1809 44.4548 97.9991 44.0912C97.8182 43.8184 97.5454 43.5457 97.1818 43.4548ZM96.9091 45.6366L96.6364 45.9093C96.3636 46.0002 96.1818 46.0002 95.9091 46.0002H95.4545V44.5457H95.8182C96.0909 44.5457 96.4545 44.5457 96.7273 44.7266C96.9091 44.8184 97.09 45.0902 97.09 45.363C97.0396 45.3635 97.0175 45.4206 96.9918 45.4868C96.9715 45.5389 96.9491 45.5966 96.9091 45.6366ZM109.273 43.1816H110.727L112 45.7271L113.364 43.1816H114.818L112.727 47.1816V50.1816H111.364V47.1816L109.273 43.1816ZM122.455 43.2725H122L121.455 44.9997L120.818 43.2725H120.364L119.909 45.727H120.455L120.727 44.1816L121.182 45.727H121.636L122.182 44.1816L122.455 45.727H122.909L122.455 43.2725ZM118.818 43.727H118.364V43.2725H119.818V43.727H119.364V45.727H118.818V43.727ZM103.364 50.1807L106.091 43.1816H107.546L110.274 50.1807H108.819L108.274 48.7262H105.365L104.818 50.1807H103.364ZM106.818 45.0907L105.818 47.4544H107.727L106.818 45.0907ZM41.4545 46.2723C41.7273 45.9095 41.8182 45.545 41.8182 45.0904C41.8182 44.6359 41.7273 44.2723 41.5454 43.9086C41.3636 43.6359 41.0909 43.3623 40.7273 43.1813C40.1818 42.9995 39.5454 42.9086 39 42.9995H37.4545V50.1813H38.8182V47.1813H38.9091L40.5454 50.1813H42.0909L40.3636 46.9995C40.8182 46.9086 41.1818 46.6359 41.4545 46.2723ZM39.2727 45.8177H38.8182V44.3632H39.2727H39.2727C39.5454 44.3632 39.7273 44.3632 40 44.4541C40.2727 44.5459 40.4545 44.8177 40.4545 45.0904C40.4545 45.2723 40.3636 45.545 40.1818 45.6359C39.9091 45.8177 39.6363 45.9086 39.2727 45.8177ZM33.4545 43.0913C34 43.0004 34.6364 43.0913 35.1818 43.2731C35.5455 43.3641 35.8182 43.6368 36 44.0004C36.1818 44.365 36.2727 44.8195 36.2727 45.1822C36.3636 45.6368 36.1818 46.0913 35.9091 46.455C35.6364 46.8186 35.2727 47.0913 34.8182 47.1813C34.3636 47.2731 33.8182 47.2731 33.3636 47.2731H33.3636V50.2732H32V43.0913H33.4545ZM34.4545 45.8186C34.6364 45.7277 34.7273 45.6368 34.8182 45.5459C34.9091 45.455 35 45.2731 35 45.1822C35 44.9095 34.8182 44.6368 34.6364 44.5468C34.3636 44.455 34.0909 44.455 33.8182 44.455H33.8182H33.3636V45.9095H33.7273C34 45.9095 34.1818 45.9095 34.4545 45.8186ZM79.9091 43.0908V50.1817H81.2727V43.0908H79.9091ZM43 50.2726L45.8182 43.0908H47.1818L50 50.2726H48.5455L48 48.8172H45.0909L44.4545 50.2726H43ZM45.5458 47.4536L46.5455 44.9999L47.5455 47.4536H45.5458ZM70.7272 43.0908L67.9091 50.2726H69.2727L69.9091 48.8172H72.9091L73.4545 50.2726H74.9091L72.0909 43.0908H70.7272ZM70.4545 47.4545L71.4545 45.0008L72.4545 47.4545H70.4545ZM76 44.3635H74.7272V43.0908H78.8181V44.3635H77.4545V50.1817H76V44.3635ZM64.4545 43.0908L62.7273 48.0908L61.0909 43.0908H59.7273L58.4545 50.2726H59.8182L60.6363 45.7272L62.0909 50.1817H63.3636L64.9091 45.6363L65.6363 50.1817H67L65.8182 43.0908H64.4545ZM56.1818 47.9092H54.1818V46.5455H57.8182V46.8192C57.7272 48.091 57.0909 49.2728 56 49.9092C55.4545 50.1819 54.8182 50.3637 54.1818 50.3637C53.5454 50.3637 52.8182 50.2728 52.1818 49.9092C51.6363 49.6365 51.1818 49.0919 50.8182 48.5455C50.4545 48.0001 50.2727 47.2728 50.2727 46.6365C50.2727 45.7274 50.6363 44.8183 51.2727 44.1819C52 43.3637 53.0909 42.9092 54.1818 42.9092C54.8182 42.9092 55.4545 43.0001 56 43.2728C56.5454 43.4555 57 43.8183 57.3636 44.2728L56.3636 45.1819C55.8182 44.5455 55 44.1819 54.1818 44.1819C53.4545 44.1819 52.8182 44.4546 52.3636 44.9092C51.9091 45.3637 51.6363 46.0001 51.6363 46.6365C51.6363 47.2728 51.9091 47.9092 52.3636 48.3637C52.8182 48.8183 53.4545 49.0919 54.1818 49.0919C54.5454 49.0919 55 49.0001 55.3636 48.8183C55.7273 48.6374 56 48.2728 56.1818 47.9092Z" fill="white"/>
</g>
<defs>
<clipPath id="clip0_75_23205">
<rect width="90.9091" height="40" fill="white" transform="translate(32 21)"/>
</clipPath>
</defs>
</svg>
