<svg width="60" height="60" viewBox="0 0 60 60" fill="none" xmlns="http://www.w3.org/2000/svg">
<g clip-path="url(#clip0_44_1813)">
<path d="M0 20C0 8.9543 8.95431 0 20 0H40C51.0457 0 60 8.95431 60 20V40C60 51.0457 51.0457 60 40 60H20C8.9543 60 0 51.0457 0 40V20Z" fill="url(#paint0_linear_44_1813)"/>
<path fill-rule="evenodd" clip-rule="evenodd" d="M33.421 14.0036C34.0895 12.6655 35.9996 12.6655 36.6682 14.0036L39.6345 19.9406C39.8953 20.4624 40.3911 20.8271 40.9671 20.9207L47.4744 21.9778C48.9254 22.2135 49.5087 23.9858 48.4811 25.0367L43.7774 29.8473C43.3781 30.2556 43.1945 30.828 43.2816 31.3923L44.3125 38.068C44.5392 39.5365 43.0007 40.6399 41.6818 39.9546L35.8816 36.9407C35.8362 36.9172 35.79 36.8956 35.7433 36.8761L40.3571 32.2579C42.5465 30.0663 41.328 26.3173 38.2681 25.8308L31.6641 24.7808L29.6147 20.7663C29.9744 20.5941 30.2721 20.3058 30.4546 19.9406L33.421 14.0036ZM33.6629 37.2133L33.6645 37.2229L34.7178 43.8993C34.9487 45.3625 33.4229 46.4707 32.1022 45.799L26.0673 42.73C25.5502 42.467 24.9386 42.467 24.4215 42.73L18.3866 45.799C17.0659 46.4707 15.5401 45.3625 15.771 43.8993L16.8259 37.2133C16.9163 36.6404 16.7273 36.0589 16.3173 35.6485L11.5326 30.8593C10.4855 29.8111 11.0683 28.0181 12.5317 27.7854L19.2186 26.7223C19.7915 26.6312 20.2864 26.2718 20.5501 25.7552L23.6279 19.7262C24.3014 18.4068 26.1874 18.4068 26.8609 19.7262L27.5972 21.1684L29.9388 25.7552C30.2025 26.2718 30.6973 26.6312 31.2702 26.7223L37.9571 27.7854C39.4206 28.0181 40.0033 29.8111 38.9562 30.8593L38.9562 30.8593L34.1715 35.6485C34.1651 35.6549 34.1587 35.6614 34.1525 35.6679C34.1085 35.7132 34.0671 35.7606 34.0285 35.8097C33.7188 36.2038 33.5838 36.7119 33.6629 37.2133Z" fill="white"/>
</g>
<defs>
<linearGradient id="paint0_linear_44_1813" x1="0" y1="30" x2="60" y2="30" gradientUnits="userSpaceOnUse">
<stop stop-color="#F79E1B"/>
<stop offset="1" stop-color="#FF6200"/>
</linearGradient>
<clipPath id="clip0_44_1813">
<rect width="60" height="60" fill="white"/>
</clipPath>
</defs>
</svg>
