<svg width="60" height="60" viewBox="0 0 60 60" fill="none" xmlns="http://www.w3.org/2000/svg">
<g clip-path="url(#clip0_44_1819)">
<path d="M0 20C0 8.9543 8.95431 0 20 0H40C51.0457 0 60 8.95431 60 20V40C60 51.0457 51.0457 60 40 60H20C8.9543 60 0 51.0457 0 40V20Z" fill="url(#paint0_linear_44_1819)"/>
<path d="M18.7523 36.01C18.2852 36.01 17.8847 35.6663 17.7998 35.1928L15.0175 19.6628C14.8497 18.7264 15.9276 18.1023 16.6159 18.7373L23.9731 25.5249L29.1667 16.4895C29.5419 15.8368 30.4581 15.8368 30.8333 16.4895L36.0269 25.5249L43.3841 18.7373C44.0724 18.1023 45.1503 18.7264 44.9825 19.6628L42.2002 35.1928C42.1153 35.6663 41.7148 36.01 41.2477 36.01H18.7523ZM42.0538 41.2525C42.0538 42.301 41.365 43 40.3318 43H19.6682C18.635 43 17.9462 42.301 17.9462 41.2525V40.5036C17.9462 39.9521 18.3799 39.505 18.9149 39.505H41.0851C41.6201 39.505 42.0538 39.9521 42.0538 40.5036V41.2525Z" fill="white"/>
</g>
<defs>
<linearGradient id="paint0_linear_44_1819" x1="60" y1="27.5" x2="0" y2="27.5" gradientUnits="userSpaceOnUse">
<stop stop-color="#299900"/>
<stop offset="1" stop-color="#9ABC00"/>
</linearGradient>
<clipPath id="clip0_44_1819">
<rect width="60" height="60" fill="white"/>
</clipPath>
</defs>
</svg>
