<svg width="151" height="84" viewBox="0 0 151 84" fill="none" xmlns="http://www.w3.org/2000/svg">
<g clip-path="url(#clip0_75_22964)">
<path fill-rule="evenodd" clip-rule="evenodd" d="M33.052 35.5649C30.365 32.0258 25.4867 31.0258 21.4346 33.191C21.5526 33.4561 21.6683 33.7247 21.7848 33.9949L21.7848 33.9949C23.2303 37.3492 24.7813 40.9483 31.9998 41.1736C32.9128 41.1997 33.9215 41.1736 35.0259 41.0866C34.8694 38.8519 34.1389 36.9997 33.052 35.5649ZM76.078 33.8955H79.0519V49.8955H76.078V33.8955ZM39.9911 34.1133H51.4259V36.7046H42.965V40.4872H48.5998V43.0785H42.965V47.3046H51.6867V49.8959H39.9911V34.1133ZM51.4259 38.6787H54.4694L57.1303 46.4961L59.5998 38.6787H62.5476L58.4607 49.8961H55.7303L51.4259 38.6787ZM68.4172 38.4697C65.0172 38.4697 62.6433 40.8871 62.6433 44.3132C62.6433 47.7306 64.9737 50.1132 68.3477 50.1132C71.7477 50.1132 74.1737 47.6871 74.1737 44.3132C74.1737 40.8958 71.7911 38.4697 68.4172 38.4697ZM71.1824 44.2871V44.3828C71.1824 46.4697 70.1129 47.7132 68.3737 47.7132C66.6607 47.7132 65.6433 46.4784 65.6433 44.3828V44.2871C65.6433 42.148 66.6868 40.861 68.4259 40.861C70.139 40.861 71.1824 42.148 71.1824 44.2871ZM81.3041 38.6787V45.4004C81.3041 48.3048 82.878 50.1135 85.4171 50.1135C86.8693 50.1135 87.8954 49.47 88.4867 48.3048V49.8961H91.4345V38.6787H88.4867V44.3744C88.4867 46.3048 87.8432 47.6091 86.2954 47.6091C84.965 47.6091 84.2519 46.7309 84.2519 45.2352V38.6787H81.3041ZM94.6868 46.9221V41.0525H93.0955V38.6786H94.6868V36.5568L97.565 34.9395V38.6699H99.7737V41.0438H97.5389V46.6264C97.5389 47.1742 97.7998 47.409 98.3476 47.4351H99.652V49.8873H97.3737C95.2085 49.7742 94.7389 48.7829 94.6868 46.9221ZM104.748 34.1562H101.678V37.0345H104.748V34.1562ZM104.695 38.678H101.722V49.8954H104.695V38.678ZM106.6 44.3132C106.6 40.8871 108.974 38.4697 112.374 38.4697C115.748 38.4697 118.13 40.8958 118.13 44.3132C118.13 47.6871 115.704 50.1132 112.304 50.1132C108.93 50.1132 106.6 47.7306 106.6 44.3132ZM115.13 44.3828V44.2871C115.13 42.148 114.087 40.861 112.374 40.861C110.635 40.861 109.591 42.148 109.591 44.2871V44.3828C109.591 46.4784 110.608 47.7132 112.321 47.7132C114.061 47.7132 115.13 46.4697 115.13 44.3828ZM122.956 38.678H120.008L120 49.9041H122.948V44.1998C122.948 42.1041 123.808 40.965 125.208 40.965C126.591 40.965 127.182 41.7737 127.182 43.3389V49.8954H130.13V43.165C130.13 40.078 128.687 38.4346 126.235 38.4346C124.643 38.4346 123.548 39.1998 122.956 40.5041V38.678ZM23.3476 46.8955C24.7215 44.7825 26.9215 43.0781 31.6172 42.8434C32.6259 42.7912 33.765 42.8086 35.0259 42.9042C34.4694 50.6434 27.1215 53.8434 21.4346 50.8086C21.5606 50.5283 21.6838 50.2444 21.8076 49.9589C22.2563 48.9247 22.7138 47.87 23.3476 46.8955Z" fill="white"/>
</g>
<defs>
<clipPath id="clip0_75_22964">
<rect width="108.696" height="20" fill="white" transform="translate(21.4346 32)"/>
</clipPath>
</defs>
</svg>
